<svg width="32" height="32" viewBox="0 0 32 32" fill="none" xmlns="http://www.w3.org/2000/svg">
<g clip-path="url(#clip0_1199_76840)">
<g filter="url(#filter0_d_1199_76840)">
<path d="M28 0H4C1.79086 0 0 1.79086 0 4V28C0 30.2091 1.79086 32 4 32H28C30.2091 32 32 30.2091 32 28V4C32 1.79086 30.2091 0 28 0Z" fill="black"/>
</g>
<path d="M28 0H4C1.79086 0 0 1.79086 0 4V28C0 30.2091 1.79086 32 4 32H28C30.2091 32 32 30.2091 32 28V4C32 1.79086 30.2091 0 28 0Z" fill="#790008"/>
<path d="M11.8948 26.1032C11.362 26.5257 10.5937 26.4667 10.1317 25.9679C9.66961 25.469 9.66961 24.6984 10.1317 24.1995C10.5937 23.7006 11.362 23.6417 11.8948 24.0642L11.9051 24.0737L12.4596 23.5204L12.4465 23.509C12.0693 23.181 11.5864 23.0002 11.0865 23C10.1618 22.999 9.34698 23.6074 9.08533 24.4944C8.82368 25.3813 9.17779 26.3346 9.95502 26.8357C10.7322 27.3367 11.7467 27.2657 12.4465 26.6612L12.4596 26.6479L11.9051 26.0941L11.8948 26.103V26.1032ZM13.2105 27.0512H14.0078V23.1152H13.2105V27.0512ZM17.1474 25.6306C17.118 25.5783 15.7573 23.1082 15.7573 23.1082H14.9805V27.0445H15.7736V24.6935L17.1462 27.0762L18.5122 24.6935V27.0445H19.3054V23.1087H18.5274C18.5274 23.1087 17.1744 25.5788 17.1453 25.6311L17.1474 25.6306ZM22.5819 25.0346C22.8684 24.8678 23.0445 24.5611 23.044 24.2296C23.044 23.5426 22.5747 23.1164 21.8205 23.1164H20.2364V27.0515H21.8858C22.6323 27.0515 23.0988 26.6157 23.0988 25.9115C23.1175 25.5421 22.9142 25.1972 22.5821 25.0346H22.5819ZM21.032 23.8286H21.7622C22.0654 23.8286 22.2488 23.9905 22.2488 24.262C22.2488 24.5335 22.0659 24.6942 21.7622 24.6942H21.033L21.032 23.8286ZM21.81 26.3395H21.033V25.413H21.8109C21.9835 25.402 22.1478 25.4878 22.2374 25.6357C22.327 25.7835 22.327 25.9689 22.2374 26.1168C22.1478 26.2646 21.9835 26.3505 21.8109 26.3395" fill="white"/>
<path d="M10 6H21.8786C22.4309 6 22.8786 6.44772 22.8786 7V18.9476C22.8786 19.4999 22.4309 19.9476 21.8786 19.9476H10C9.44772 19.9476 9 19.4999 9 18.9476V7C9 6.44772 9.44772 6 10 6Z" fill="white"/>
<path d="M18.2533 8.62378H10.8652L14.1105 12.9738H21.4986L18.2533 8.62378Z" fill="#E50019"/>
<path d="M21.4986 12.9738H14.1105L10.8652 17.3238H18.2533L21.4986 12.9738Z" fill="#640008"/>
</g>
<defs>
<filter id="filter0_d_1199_76840" x="-4" y="-2" width="40" height="40" filterUnits="userSpaceOnUse" color-interpolation-filters="sRGB">
<feFlood flood-opacity="0" result="BackgroundImageFix"/>
<feColorMatrix in="SourceAlpha" type="matrix" values="0 0 0 0 0 0 0 0 0 0 0 0 0 0 0 0 0 0 127 0" result="hardAlpha"/>
<feOffset dy="2"/>
<feGaussianBlur stdDeviation="2"/>
<feColorMatrix type="matrix" values="0 0 0 0 0 0 0 0 0 0 0 0 0 0 0 0 0 0 0.16 0"/>
<feBlend mode="normal" in2="BackgroundImageFix" result="effect1_dropShadow_1199_76840"/>
<feBlend mode="normal" in="SourceGraphic" in2="effect1_dropShadow_1199_76840" result="shape"/>
</filter>
<clipPath id="clip0_1199_76840">
<rect width="32" height="32" fill="white"/>
</clipPath>
</defs>
</svg>
