<svg width="32" height="32" viewBox="0 0 32 32" fill="none" xmlns="http://www.w3.org/2000/svg">
<path d="M28 0H4C1.79086 0 0 1.79086 0 4V28C0 30.2091 1.79086 32 4 32H28C30.2091 32 32 30.2091 32 28V4C32 1.79086 30.2091 0 28 0Z" fill="#00A19C"/>
<path fill-rule="evenodd" clip-rule="evenodd" d="M25.4806 4.35999L20.0007 13.8635L21.1129 15.7938C21.8251 16.9723 22.2356 18.3529 22.2356 19.83C22.2356 24.1433 18.7448 27.64 14.4382 27.64C12.9697 27.64 11.5955 27.2319 10.4223 26.5264L10.4225 26.5251C8.15639 25.1586 6.64062 22.6725 6.64062 19.83C6.64062 18.3947 7.03529 17.0373 7.71091 15.8818C7.71374 15.8759 13.1503 6.44308 13.1503 6.44308C14.0484 4.8879 14.6664 4.4234 17.0243 4.35999H25.4806ZM10.6952 24.2817C11.7063 25.1356 13.0128 25.6506 14.4381 25.6506C17.6471 25.6506 20.2492 23.044 20.2492 19.83C20.2492 18.7553 19.9576 17.7469 19.4499 16.8843C19.4492 16.8815 19.4485 16.8801 19.4476 16.8786L16.3867 11.5656L16.386 11.5641L14.4358 8.18711C14.4172 8.22308 9.42557 16.8813 9.42557 16.8813C8.91705 17.7454 8.62687 18.7551 8.62687 19.8299C8.62687 21.6165 9.43068 23.2144 10.6952 24.2817ZM17.0676 6.35792H22.026L18.8498 11.8657L17.7669 9.98808L17.7671 9.98792L17.7675 9.98751L15.7547 6.4964C16.0443 6.39688 16.4387 6.35792 17.0676 6.35792ZM10.1206 19.8392C10.1206 17.4544 12.0546 15.5199 14.4407 15.5199C16.8267 15.5199 18.7606 17.4544 18.7606 19.8392C18.7606 22.2255 16.8267 24.1599 14.4407 24.1599C12.0546 24.1599 10.1206 22.2253 10.1206 19.8392Z" fill="white"/>
</svg>
