<svg width="24" height="24" viewBox="0 0 24 24" fill="none" xmlns="http://www.w3.org/2000/svg">
<path fill-rule="evenodd" clip-rule="evenodd" d="M17.5303 5.96967C17.8232 6.26256 17.8232 6.73744 17.5303 7.03033L11.2511 13.3096C10.9582 13.6025 10.4833 13.6025 10.1904 13.3096C9.89751 13.0167 9.89751 12.5418 10.1904 12.2489L16.4697 5.96967C16.7626 5.67678 17.2374 5.67678 17.5303 5.96967ZM22.5303 5.96967C22.8232 6.26256 22.8232 6.73744 22.5303 7.03033L11.5303 18.0303C11.2374 18.3232 10.7626 18.3232 10.4697 18.0303L5.96967 13.5303C5.67678 13.2374 5.67678 12.7626 5.96967 12.4697C6.26256 12.1768 6.73744 12.1768 7.03033 12.4697L11 16.4393L21.4697 5.96967C21.7626 5.67678 22.2374 5.67678 22.5303 5.96967ZM1.46967 12.4697C1.76256 12.1768 2.23744 12.1768 2.53033 12.4697L6.77832 16.7177C7.07122 17.0106 7.07122 17.4854 6.77832 17.7783C6.48543 18.0712 6.01056 18.0712 5.71766 17.7783L1.46967 13.5303C1.17678 13.2374 1.17678 12.7626 1.46967 12.4697Z" fill="#788494"/>
</svg>
