<svg xmlns="http://www.w3.org/2000/svg" viewBox="0 0 8.75 10">
    <defs>
        <style>
            .cls-1{fill:#808fa4}
        </style>
    </defs>
    <path id="Icon" d="M22.766 3.375A.233.233 0 0 0 23 3.141v-.7a.934.934 0 0 0-.937-.937h-.937V.484a.233.233 0 0 0-.235-.234h-.781a.233.233 0 0 0-.234.234V1.5h-2.5V.484a.233.233 0 0 0-.235-.234h-.781a.233.233 0 0 0-.234.234V1.5h-.937a.934.934 0 0 0-.937.938v.7a.233.233 0 0 0 .234.234zM14.484 4a.233.233 0 0 0-.234.234v5.079a.934.934 0 0 0 .938.938h6.875A.934.934 0 0 0 23 9.313V4.234A.233.233 0 0 0 22.766 4zm2.266 3.984v.781a.233.233 0 0 1-.234.235h-.781a.233.233 0 0 1-.234-.234v-.782a.233.233 0 0 1 .234-.234h.781a.233.233 0 0 1 .234.234zm0-2.5v.781a.233.233 0 0 1-.234.234h-.781a.233.233 0 0 1-.234-.234v-.781a.233.233 0 0 1 .234-.234h.781a.233.233 0 0 1 .234.234zm2.5 2.5v.781a.233.233 0 0 1-.234.235h-.781A.233.233 0 0 1 18 8.766v-.782a.233.233 0 0 1 .234-.234h.781a.233.233 0 0 1 .234.234zm0-2.5v.781a.233.233 0 0 1-.234.234h-.781A.233.233 0 0 1 18 6.266v-.782a.233.233 0 0 1 .234-.234h.781a.233.233 0 0 1 .234.234zm2.5 2.5v.781a.233.233 0 0 1-.234.235h-.781a.233.233 0 0 1-.234-.234v-.782a.233.233 0 0 1 .234-.234h.781a.233.233 0 0 1 .234.234zm0-2.5v.781a.233.233 0 0 1-.234.234h-.781a.233.233 0 0 1-.234-.234v-.781a.233.233 0 0 1 .234-.234h.781a.233.233 0 0 1 .234.234z" class="cls-1" transform="translate(-14.25 -.25)"/>
</svg>
