<svg width="24" height="24" viewBox="0 0 24 24" fill="none" xmlns="http://www.w3.org/2000/svg">
<path fill-rule="evenodd" clip-rule="evenodd" d="M13 1.75H6C4.48122 1.75 3.25 2.98122 3.25 4.5V19.5C3.25 21.0142 4.48579 22.25 6 22.25H18C19.5188 22.25 20.75 21.0188 20.75 19.5V9.5C20.75 9.30109 20.671 9.11032 20.5303 8.96967L13.5303 1.96967C13.3897 1.82902 13.1989 1.75 13 1.75ZM18.189 8.75L13.75 4.311V8.75H18.189ZM12.2927 3.25H6C5.30964 3.25 4.75 3.80964 4.75 4.5V19.5C4.75 20.1858 5.31421 20.75 6 20.75H18C18.6904 20.75 19.25 20.1904 19.25 19.5V10.2073C19.2026 10.2241 19.153 10.2362 19.1018 10.2432L19 10.25H13C12.6203 10.25 12.3065 9.96785 12.2568 9.60177L12.25 9.5V3.5C12.25 3.41234 12.265 3.32819 12.2927 3.25Z" fill="#fff"/>
</svg>
