<svg xmlns="http://www.w3.org/2000/svg" viewBox="0 0 46.004 38.36">
    <defs>
        <style>
            .cls-1{clip-path:url(#clip-path)}.cls-2{fill:rgba(0,0,0,0)}.cls-3{fill:#526173}
        </style>
        <clipPath id="clip-path">
            <path id="Shape" d="M41.837 38.36H4.163a4.106 4.106 0 0 1-3.62-2.166 4.176 4.176 0 0 1 .125-4.33l18.806-29.91a4.158 4.158 0 0 1 7.051 0l18.807 29.911a4.176 4.176 0 0 1 .125 4.33 4.106 4.106 0 0 1-3.62 2.165zM23 1.94a2.254 2.254 0 0 0-1.916 1.077L2.287 32.89a2.3 2.3 0 0 0-.068 2.376 2.218 2.218 0 0 0 1.961 1.178h37.627a2.214 2.214 0 0 0 1.964-1.217l.01.039a2.3 2.3 0 0 0-.068-2.376L24.917 3.017A2.256 2.256 0 0 0 23 1.94zm4.79 30.672a.966.966 0 0 1-.489-.134 8.356 8.356 0 0 0-8.622 0 .949.949 0 0 1-.394.085.959.959 0 0 1-.564-1.733 10.246 10.246 0 0 1 10.539 0 .971.971 0 0 1 .45.582.952.952 0 0 1-.1.731.964.964 0 0 1-.82.468zm2.875-9.575a.951.951 0 0 1-.68-.284l-.278-.287-.278.287a.962.962 0 1 1-1.36-1.36l.287-.278-.287-.278a.962.962 0 1 1 1.36-1.36l.278.287.278-.287a.962.962 0 1 1 1.36 1.36l-.287.278.287.278a.951.951 0 0 1 .283.68.968.968 0 0 1-.963.963zm-13.414 0a.962.962 0 0 1-.679-.284l-.278-.287-.278.287a.951.951 0 0 1-.68.284.968.968 0 0 1-.963-.963.951.951 0 0 1 .283-.68l.287-.278-.287-.278a.962.962 0 1 1 1.36-1.36l.278.287.278-.287a.962.962 0 1 1 1.36 1.36l-.287.278.287.278a.951.951 0 0 1 .284.68.962.962 0 0 1-.284.68.951.951 0 0 1-.681.282z" transform="translate(2 6)"/>
        </clipPath>
    </defs>
    <g id="Icon" transform="translate(-1.998 -6)">
        <path id="Shape-2" d="M41.837 38.36H4.163a4.106 4.106 0 0 1-3.62-2.166 4.176 4.176 0 0 1 .125-4.33l18.806-29.91a4.158 4.158 0 0 1 7.051 0l18.807 29.911a4.176 4.176 0 0 1 .125 4.33 4.106 4.106 0 0 1-3.62 2.165zM23 1.94a2.254 2.254 0 0 0-1.916 1.077L2.287 32.89a2.3 2.3 0 0 0-.068 2.376 2.218 2.218 0 0 0 1.961 1.178h37.627a2.214 2.214 0 0 0 1.964-1.217l.01.039a2.3 2.3 0 0 0-.068-2.376L24.917 3.017A2.256 2.256 0 0 0 23 1.94zm4.79 30.672a.966.966 0 0 1-.489-.134 8.356 8.356 0 0 0-8.622 0 .949.949 0 0 1-.394.085.959.959 0 0 1-.564-1.733 10.246 10.246 0 0 1 10.539 0 .971.971 0 0 1 .45.582.952.952 0 0 1-.1.731.964.964 0 0 1-.82.468zm2.875-9.575a.951.951 0 0 1-.68-.284l-.278-.287-.278.287a.962.962 0 1 1-1.36-1.36l.287-.278-.287-.278a.962.962 0 1 1 1.36-1.36l.278.287.278-.287a.962.962 0 1 1 1.36 1.36l-.287.278.287.278a.951.951 0 0 1 .283.68.968.968 0 0 1-.963.963zm-13.414 0a.962.962 0 0 1-.679-.284l-.278-.287-.278.287a.951.951 0 0 1-.68.284.968.968 0 0 1-.963-.963.951.951 0 0 1 .283-.68l.287-.278-.287-.278a.962.962 0 1 1 1.36-1.36l.278.287.278-.287a.962.962 0 1 1 1.36 1.36l-.287.278.287.278a.951.951 0 0 1 .284.68.962.962 0 0 1-.284.68.951.951 0 0 1-.681.282z" data-name="Shape" transform="translate(2 6)"/>
        <g id="Icon-2" class="cls-1" data-name="Icon">
            <g id="Variables_Palette_Neutrals_10_Black_Gray" data-name="Variables/Palette/Neutrals/10 Black Gray">
                <path id="Variables_Palette_Neutrals_10_Black_Gray_background" d="M0 0h50v50H0z" class="cls-2" data-name="Variables/Palette/Neutrals/10 Black Gray background"/>
                <path id="Color" d="M0 0h50v50H0z" class="cls-3"/>
            </g>
        </g>
    </g>
</svg>
