<svg xmlns="http://www.w3.org/2000/svg" viewBox="0 0 6.224 10.219">
    <defs>
        <style>
            .cls-1{fill:#808fa4}
        </style>
    </defs>
    <path id="_" d="M-6.68-4.9a.511.511 0 0 0-.187.4.511.511 0 0 0 .188.4L-2.133.445a.542.542 0 0 0 .4.164.542.542 0 0 0 .4-.164L-.82-.07a.586.586 0 0 0 .176-.4A.5.5 0 0 0-.8-.867L-4.43-4.5-.8-8.133a.5.5 0 0 0 .152-.4.586.586 0 0 0-.176-.4l-.516-.516a.542.542 0 0 0-.4-.164.542.542 0 0 0-.4.164z" class="cls-1" data-name="&lt;" transform="translate(6.867 9.609)"/>
</svg>
