<svg xmlns="http://www.w3.org/2000/svg" width="40" height="40" stroke="#19b38a" fill="none" viewBox="0 0 40 40">
    <path fill="#fff" fill-rule="evenodd" d="M16.493 15.175l-6.103.489-.179.026c-.976.214-1.332 1.486-.535 2.17l4.65 3.982-1.42 5.958-.029.169c-.106.999.998 1.737 1.897 1.188l5.224-3.192 5.228 3.192.152.08c.917.409 1.96-.412 1.716-1.437l-1.422-5.958 4.652-3.983.129-.126c.663-.747.204-1.985-.843-2.07l-6.105-.488-2.35-5.655c-.428-1.027-1.882-1.027-2.31 0l-2.352 5.655zM20 13.255l1.49 3.584.079.156c.205.347.567.578.976.61l3.868.31-2.946 2.526-.124.122c-.267.302-.374.719-.28 1.117l.902 3.777-3.313-2.024-.178-.09c-.364-.15-.783-.12-1.125.09l-3.316 2.024.903-3.777.029-.171c.038-.401-.12-.801-.431-1.068l-2.949-2.526 3.87-.31c.467-.037.874-.333 1.054-.766L20 13.255z" clip-rule="evenodd"/>
    <path fill="#fff" fill-rule="evenodd" d="M20 2.083c-5.183 0-10.355 1.388-15.5 4.15-1.488.799-2.417 2.35-2.417 4.039v8.061c0 .277.01.553.03.828l-.02.268c-.004.11-.007.236-.008.369L2.083 20c0 9.895 8.022 17.917 17.917 17.917 9.895 0 17.917-8.022 17.917-17.917 0-.344-.01-.678-.03-1.002l.019-.201c.005-.087.008-.19.01-.298v-8.227c0-1.689-.927-3.24-2.415-4.039C30.355 3.471 25.184 2.083 20 2.083zm0 2.5c4.756 0 9.525 1.28 14.319 3.853.676.363 1.098 1.068 1.098 1.836v8.061c0 .218-.008.434-.024.649l.023.841V20c0 8.514-6.902 15.417-15.416 15.417S4.583 28.514 4.583 20c0-.293.009-.578.025-.856l-.024-.68v-8.192c0-.768.421-1.473 1.097-1.836C10.475 5.863 15.244 4.583 20 4.583z" clip-rule="evenodd"/>
</svg>
