<svg width="24" height="24" viewBox="0 0 24 24" fill="none" xmlns="http://www.w3.org/2000/svg">
<path d="M5.44621 4.39705L5.53033 4.46967L12 10.939L18.4697 4.46967C18.7626 4.17678 19.2374 4.17678 19.5303 4.46967C19.7966 4.73594 19.8208 5.1526 19.6029 5.44621L19.5303 5.53033L13.061 12L19.5303 18.4697C19.8232 18.7626 19.8232 19.2374 19.5303 19.5303C19.2641 19.7966 18.8474 19.8208 18.5538 19.6029L18.4697 19.5303L12 13.061L5.53033 19.5303C5.23744 19.8232 4.76256 19.8232 4.46967 19.5303C4.2034 19.2641 4.1792 18.8474 4.39705 18.5538L4.46967 18.4697L10.939 12L4.46967 5.53033C4.17678 5.23744 4.17678 4.76256 4.46967 4.46967C4.70635 4.23299 5.06186 4.18756 5.34416 4.3334L5.44621 4.39705Z" fill="#788494"/>
</svg>
