<svg xmlns="http://www.w3.org/2000/svg" width="40" height="40" stroke="#6E2FEB" fill="none" viewBox="0 0 40 40">
    <path fill="#fff" fill-rule="evenodd" d="M8.75 7.917c0-2.552 2.177-4.584 4.821-4.584 2.7 0 4.736 1.52 6.167 3.949.09.155.178.31.262.469.084-.158.171-.314.262-.469 1.431-2.428 3.468-3.949 6.167-3.949 2.644 0 4.821 2.032 4.821 4.584 0 2.55-2.177 4.583-4.821 4.583h-3.616l1.937 2.583c.414.553.302 1.336-.25 1.75-.502.377-1.195.319-1.628-.11l-.122-.14-2.752-3.666-2.748 3.666c-.377.502-1.058.64-1.594.35l-.156-.1c-.502-.376-.64-1.058-.35-1.594l.1-.156 1.938-2.583H13.57c-2.644 0-4.821-2.032-4.821-4.583zm8.834.634c-1.025-1.738-2.336-2.718-4.013-2.718-1.3 0-2.321.953-2.321 2.084 0 1.13 1.02 2.083 2.321 2.083h4.716l-.184-.44c-.078-.173-.16-.344-.246-.513l-.273-.496zm8.845-2.718c1.3 0 2.321.953 2.321 2.084l-.012.21C28.621 9.162 27.648 10 26.428 10h-4.716l.185-.44c.155-.346.328-.684.52-1.009 1.024-1.738 2.335-2.718 4.012-2.718z" clip-rule="evenodd"/>
    <path fill="#fff" fill-rule="evenodd" d="M7.917 11.25c0-.69-.56-1.25-1.25-1.25H5l-.235.01c-1.548.133-2.682 1.574-2.682 3.24v8l.012.17c.082.61.605 1.08 1.238 1.08h.417v8.75c0 2.531 2.052 4.583 4.583 4.583h23.334c2.531 0 4.583-2.052 4.583-4.583V22.5h.417l.17-.012c.61-.082 1.08-.605 1.08-1.238v-8l-.009-.248C37.797 11.36 36.587 10 35 10h-1.667l-.17.011c-.61.083-1.08.606-1.08 1.239 0 .69.56 1.25 1.25 1.25H35l.068.013c.163.062.349.335.349.737V20H4.583v-6.75l.011-.164c.049-.364.253-.586.406-.586h1.667l.17-.011c.61-.083 1.08-.606 1.08-1.24zM21.25 33.333h10.417c1.15 0 2.083-.932 2.083-2.083V22.5h-12.5v10.833zM18.75 22.5v10.833H8.333l-.213-.01c-1.05-.107-1.87-.994-1.87-2.073V22.5h12.5z" clip-rule="evenodd"/>
</svg>
