<svg xmlns="http://www.w3.org/2000/svg" viewBox="0 0 6.224 10.219">
    <defs>
        <style>
            .cls-1{fill:#808fa4}
        </style>
    </defs>
    <path id="_" d="M-.82-4.1a.511.511 0 0 0 .188-.4.511.511 0 0 0-.188-.4l-4.547-4.545a.542.542 0 0 0-.4-.164.542.542 0 0 0-.4.164l-.516.516a.586.586 0 0 0-.176.4.5.5 0 0 0 .152.4L-3.07-4.5-6.7-.867a.5.5 0 0 0-.152.4.586.586 0 0 0 .176.4l.516.516a.542.542 0 0 0 .4.164.542.542 0 0 0 .4-.164z" class="cls-1" data-name="&gt;" transform="translate(6.856 9.609)"/>
</svg>
