<svg xmlns="http://www.w3.org/2000/svg" id="Variables_Icons_Zoom" data-name="Variables/Icons/Zoom" viewBox="0 0 24 24">
    <defs>
        <style>
            .cls-1{fill:none}.cls-2{fill:rgba(0,0,0,0)}.cls-3{clip-path:url(#clip-path)}.cls-4{fill:#9eb1c8}
        </style>
        <clipPath id="clip-path">
            <path id="_Icon" d="M16.463 18a1.538 1.538 0 0 1-1-.369 1.357 1.357 0 0 1-.17-.171l-3.406-4.023A7.389 7.389 0 0 1 7.459 14.9a7.487 7.487 0 0 1-5.992-3.015A7.451 7.451 0 0 1 7.456 0h.01a7.445 7.445 0 0 1 5.972 11.888l4.023 3.4a1.538 1.538 0 0 1-1 2.708zM7.456 1.569a5.885 5.885 0 1 0 5.885 5.885 5.891 5.891 0 0 0-5.885-5.885z" class="cls-1" data-name="âœï¸ Icon"/>
        </clipPath>
    </defs>
    <path id="Variables_Icons_Zoom_background" d="M0 0h24v24H0z" class="cls-2" data-name="Variables/Icons/Zoom background"/>
    <path id="Bounding_Box" d="M0 0h24v24H0z" class="cls-1" data-name="Bounding Box"/>
    <path id="_Icon-2" d="M16.463 18a1.538 1.538 0 0 1-1-.369 1.357 1.357 0 0 1-.17-.171l-3.406-4.023A7.389 7.389 0 0 1 7.459 14.9a7.487 7.487 0 0 1-5.992-3.015A7.451 7.451 0 0 1 7.456 0h.01a7.445 7.445 0 0 1 5.972 11.888l4.023 3.4a1.538 1.538 0 0 1-1 2.708zM7.456 1.569a5.885 5.885 0 1 0 5.885 5.885 5.891 5.891 0 0 0-5.885-5.885z" class="cls-1" data-name="âœï¸ Icon" transform="translate(2.998 3)"/>
    <g id="Group_22" class="cls-3" data-name="Group 22" transform="translate(2.998 3)">
        <g id="_Color" data-name="â†³ ðŸŽ¨Color" transform="translate(-2.998 -3)">
            <path id="_Color_background" d="M0 0h24v24H0z" class="cls-2" data-name="â†³ ðŸŽ¨Color background"/>
            <path id="Color" d="M0 0h24v24H0z" class="cls-4"/>
        </g>
    </g>
</svg>
