<svg xmlns="http://www.w3.org/2000/svg" width="40" height="40" stroke="#0e3253" fill="none" viewBox="0 0 40 40">
    <path fill="#fff" d="M13.333 19.583c.69 0 1.25.56 1.25 1.25 0 .633-.47 1.156-1.08 1.239l-.17.011h-5c-.69 0-1.25-.56-1.25-1.25 0-.632.47-1.155 1.08-1.238l.17-.012h5zM32.917 20.833c0-.69-.56-1.25-1.25-1.25h-5l-.17.012c-.61.082-1.08.606-1.08 1.238 0 .69.56 1.25 1.25 1.25h5l.17-.011c.61-.083 1.08-.606 1.08-1.239z"/>
    <path fill="#fff" fill-rule="evenodd" d="M10.813 3.75h18.374c2.024 0 3.808 1.328 4.39 3.266l4.287 14.292.053.359v10c0 2.531-2.052 4.583-4.584 4.583h-1.666c-2.532 0-4.584-2.052-4.584-4.583v-.417H12.917v.417c0 2.437-1.903 4.43-4.304 4.575l-.28.008H6.667c-2.532 0-4.584-2.052-4.584-4.583v-10l.053-.36 4.287-14.29c.582-1.94 2.366-3.267 4.39-3.267zm18.584 2.51l-.21-.01H10.813c-.92 0-1.73.603-1.995 1.485L4.583 21.847v9.82c0 1.078.82 1.966 1.87 2.072l.214.011h1.666c1.151 0 2.084-.933 2.084-2.083V30c0-.69.56-1.25 1.25-1.25h16.666c.69 0 1.25.56 1.25 1.25v1.667c0 1.15.933 2.083 2.084 2.083h1.666c1.151 0 2.084-.933 2.084-2.083v-9.814L31.182 7.735c-.244-.814-.954-1.39-1.785-1.474z" clip-rule="evenodd"/>
</svg>
