<svg xmlns="http://www.w3.org/2000/svg" id="baseline-visibility_off-24px" viewBox="0 0 40 40">
    <defs>
        <style>
            .cls-1{fill:none}.cls-2{fill:#bfcbde}
        </style>
    </defs>
    <path id="Path_1" d="M0 0h40v40H0zm0 0h40v40H0zm0 0h40v40H0zm0 0h40v40H0z" class="cls-1" data-name="Path 1"/>
    <path id="Path_2" d="M19.333 9.667A8.336 8.336 0 0 1 27.667 18a8.089 8.089 0 0 1-.6 3.05l4.867 4.867A19.7 19.7 0 0 0 37.65 18 19.711 19.711 0 0 0 19.317 5.5a19.409 19.409 0 0 0-6.633 1.167l3.6 3.6a8.089 8.089 0 0 1 3.049-.6zM2.667 5.117l3.8 3.8.767.767A19.673 19.673 0 0 0 1 18a19.7 19.7 0 0 0 25.633 11.1l.7.7 4.883 4.867 2.117-2.117L4.783 3zm9.217 9.217l2.583 2.583A4.7 4.7 0 0 0 14.333 18a4.993 4.993 0 0 0 5 5 4.7 4.7 0 0 0 1.083-.133L23 25.45a8.279 8.279 0 0 1-11.117-11.117zm7.183-1.3l5.25 5.25.033-.267a4.993 4.993 0 0 0-5-5z" class="cls-2" data-name="Path 2" transform="translate(.667 2)"/>
</svg>
