<?xml version="1.0" encoding="utf-8"?>
<!-- Generator: Adobe Illustrator 22.1.0, SVG Export Plug-In . SVG Version: 6.00 Build 0)  -->
<svg version="1.1" id="Layer_1" xmlns="http://www.w3.org/2000/svg" xmlns:xlink="http://www.w3.org/1999/xlink" x="0px" y="0px"
	 viewBox="0 0 134 134" style="enable-background:new 0 0 134 134;" xml:space="preserve">
<style type="text/css">
	.st0{fill:#F1F1F1;}
	.st1{fill:#231F20;fill-opacity:0.1;}
</style>
<title>0005669B-E1D6-4875-8BCD-390AA156EAE9</title>
<desc>Created with sketchtool.</desc>
<g id="Symbols">
	<g id="Profile_x2F_User-Image_x2F_Default" transform="translate(-1.000000, -1.000000)">
		<g id="Default-" transform="translate(-7.000000, -7.000000)">
			<circle id="Oval" class="st0" cx="75" cy="75" r="67"/>
			<path id="Shape" class="st1" d="M96.4,103.2c-6.9-3-9.4-7.7-10.2-11.8c5-4,8.9-10.5,11.1-17.4c2.2-2.9,3.5-5.9,3.5-8.4
				c0-1.7-0.6-3-1.7-3.9C98.8,47,88.5,35.2,75.7,35c-0.1,0-0.2,0-0.3,0c0,0-0.1,0-0.1,0c-12.7,0.1-23,11.7-23.6,26.2
				c-1.6,1-2.5,2.4-2.5,4.5c0,3,1.8,6.6,4.8,9.9c2.1,6,5.6,11.6,9.9,15.3c-0.6,4.2-3.1,9.2-10.3,12.3c-3.9,1.7-11,3.2-14.1,4.8
				c7.9,8.7,22.7,14.1,35.3,14.2l0.2,0c0,0,0,0,0,0c12.6,0,27.6-5.5,35.5-14.2C107.4,106.5,100.3,105,96.4,103.2z"/>
		</g>
	</g>
</g>
</svg>
