<svg xmlns="http://www.w3.org/2000/svg" width="82" height="80" viewBox="0 0 82 80">
    <g fill="none" fill-rule="evenodd">
        <path d="M0 0H80V80H0z"/>
        <circle cx="40" cy="40" r="36" fill="#B3E7FF"/>
        <g>
            <path fill="#CC9F04" d="M36.604 7.157L61.18 25.8c.573.435.91 1.113.91 1.832V59.46c0 2.54-2.06 4.6-4.6 4.6H6.445c-2.428-1.954-4.596-4.216-6.447-6.727L0 27.633c0-.72.337-1.398.91-1.833L25.486 7.157c3.286-2.493 7.831-2.493 11.118 0z" transform="translate(11 4)"/>
            <path fill="#EBEBFB" d="M7.83 1.125l49.629 2.601c1.268.067 2.242 1.149 2.176 2.417l-.003.041-3.225 45.827c-.084 1.194-1.07 2.124-2.267 2.138l-49.173.579c-1.27.014-2.312-1.003-2.327-2.273 0-.052 0-.104.004-.157l2.77-49.006c.07-1.264 1.151-2.233 2.416-2.167z" transform="translate(11 4)"/>
            <path fill="#FFC705" d="M0 27.609l26.05 15.466c1.637.973 2.177 3.09 1.204 4.727-.294.497-.708.91-1.205 1.205L4.126 62.024c-1.507-1.44-2.888-3.01-4.127-4.69L0 27.609zM62.09 27.609L36.04 43.075c-1.638.973-2.177 3.09-1.205 4.727.295.497.709.91 1.205 1.205l26.05 15.467V27.61z" transform="translate(11 4)"/>
            <path fill="#FFDD69" d="M34.073 39.96L62.09 64.474l-55.118.002c-1.223-.947-2.382-1.97-3.472-3.064L28.016 39.96c1.734-1.517 4.323-1.517 6.057 0z" transform="translate(11 4)"/>
        </g>
        <g fill-rule="nonzero" transform="translate(62 52)">
            <circle cx="9.981" cy="9.981" r="9.981" fill="#1CC99B"/>
            <path fill="#19B38A" d="M19.961 9.98c0 5.49-4.491 9.981-9.98 9.981-3.182 0-5.989-1.435-7.798-3.743 1.684 1.373 3.868 2.184 6.238 2.184 5.49 0 9.98-4.492 9.98-9.98 0-2.371-.81-4.555-2.183-6.239 2.308 1.81 3.743 4.616 3.743 7.798z"/>
            <path fill="#FFF" d="M15.407 7.111L8.92 14.222c-.437.5-1.185.5-1.622 0l-2.744-3.056c-.375-.437-.375-1.123.062-1.56.437-.374 1.123-.374 1.56.063l1.933 2.183 5.677-6.176c.436-.436 1.122-.499 1.559-.062.437.374.437 1.123.062 1.497z"/>
        </g>
    </g>
</svg>
