<svg width="38" height="44" viewBox="0 0 38 44" fill="none" xmlns="http://www.w3.org/2000/svg">
<g filter="url(#filter0_d)">
<path fill-rule="evenodd" clip-rule="evenodd" d="M19 2C23.4573 2 27.4518 3.88403 30.365 6.79717C33.3864 9.81858 35.25 13.9493 35.25 18.25C35.25 25.83 29.8067 33.4602 19.1471 41.219C8.81586 33.5848 2.75 25.7108 2.75 18.25C2.75 13.9493 4.61362 9.81858 7.63504 6.79717C10.5482 3.88403 14.5427 2 19 2Z" fill="#01AD9D"/>
<path fill-rule="evenodd" clip-rule="evenodd" d="M19 2C23.4573 2 27.4518 3.88403 30.365 6.79717C33.3864 9.81858 35.25 13.9493 35.25 18.25C35.25 25.83 29.8067 33.4602 19.1471 41.219C8.81586 33.5848 2.75 25.7108 2.75 18.25C2.75 13.9493 4.61362 9.81858 7.63504 6.79717C10.5482 3.88403 14.5427 2 19 2Z" stroke="white" stroke-width="1.5"/>
</g>
<path d="M17.7969 26.171C19.6725 26.171 21.1978 24.6408 21.1978 22.7592C21.1978 20.8775 19.6725 19.3473 17.7969 19.3473C15.9213 19.3473 14.396 20.8775 14.396 22.7592C14.396 24.6408 15.9213 26.171 17.7969 26.171Z" fill="white"/>
<path fill-rule="evenodd" clip-rule="evenodd" d="M26.4743 10.5833L22.1684 18.066L23.0369 19.5889C23.5988 20.5188 23.92 21.6024 23.92 22.7665C23.92 26.1637 21.1759 28.9166 17.7896 28.9166C16.6365 28.9166 15.5564 28.5945 14.6368 28.0381C12.8561 26.9618 11.6665 25.0069 11.6665 22.7665C11.6665 21.6316 11.973 20.5627 12.5058 19.6548C12.5131 19.6475 16.7824 12.2234 16.7824 12.2234C17.4904 11.0006 17.972 10.6346 19.8257 10.5833H26.4743ZM23.7594 12.1501H19.8622C19.366 12.1501 19.0594 12.1867 18.8259 12.2673L21.2635 16.4919L23.7594 12.1501ZM14.8558 26.2662C15.6512 26.9398 16.6803 27.3425 17.7969 27.3425C20.322 27.3425 22.3655 25.2924 22.3655 22.7518C22.3655 21.9025 22.1392 21.1118 21.7378 20.4309L17.7969 13.5925C17.7823 13.6218 13.8559 20.4382 13.8559 20.4382C13.4545 21.1191 13.2283 21.9099 13.2283 22.7592C13.2283 24.1649 13.8632 25.4242 14.8558 26.2662Z" fill="white"/>
<defs>
<filter id="filter0_d" x="-1" y="-0.75" width="40" height="46.899" filterUnits="userSpaceOnUse" color-interpolation-filters="sRGB">
<feFlood flood-opacity="0" result="BackgroundImageFix"/>
<feColorMatrix in="SourceAlpha" type="matrix" values="0 0 0 0 0 0 0 0 0 0 0 0 0 0 0 0 0 0 127 0"/>
<feOffset dy="1"/>
<feGaussianBlur stdDeviation="1.5"/>
<feColorMatrix type="matrix" values="0 0 0 0 0 0 0 0 0 0 0 0 0 0 0 0 0 0 0.2 0"/>
<feBlend mode="normal" in2="BackgroundImageFix" result="effect1_dropShadow"/>
<feBlend mode="normal" in="SourceGraphic" in2="effect1_dropShadow" result="shape"/>
</filter>
</defs>
</svg>
