<svg width="38" height="44" fill="none" xmlns="http://www.w3.org/2000/svg">
  <g filter="url(#a)" clip-rule="evenodd">
    <path fill-rule="evenodd" d="M19 2c4.457 0 8.452 1.884 11.365 4.797C33.386 9.82 35.25 13.95 35.25 18.25c0 7.58-5.443 15.21-16.103 22.969C8.816 33.585 2.75 25.711 2.75 18.25c0-4.3 1.864-8.431 4.885-11.453C10.548 3.884 14.543 2 19 2Z" fill="#feb43a"/>
    <path d="M19 2c4.457 0 8.452 1.884 11.365 4.797C33.386 9.82 35.25 13.95 35.25 18.25c0 7.58-5.443 15.21-16.103 22.969C8.816 33.585 2.75 25.711 2.75 18.25c0-4.3 1.864-8.431 4.885-11.453C10.548 3.884 14.543 2 19 2Z" stroke="#fff" stroke-width="1.5"/>
  </g>
  <path d="M17.797 26.171a3.41 3.41 0 0 0 3.4-3.412 3.41 3.41 0 0 0-3.4-3.412 3.41 3.41 0 0 0-3.401 3.412 3.41 3.41 0 0 0 3.4 3.412Z" fill="#fff"/>
  <path fill-rule="evenodd" clip-rule="evenodd" d="m26.474 10.583-4.306 7.483.869 1.523c.562.93.883 2.013.883 3.178 0 3.397-2.744 6.15-6.13 6.15a6.075 6.075 0 0 1-3.153-.879 6.146 6.146 0 0 1-2.97-5.271c0-1.135.306-2.204.839-3.112.007-.008 4.276-7.432 4.276-7.432.708-1.222 1.19-1.588 3.044-1.64h6.648ZM23.76 12.15h-3.897c-.496 0-.803.037-1.036.117l2.438 4.225 2.495-4.342Zm-8.903 14.116a4.539 4.539 0 0 0 2.94 1.077c2.526 0 4.57-2.05 4.57-4.591 0-.85-.227-1.64-.628-2.321l-3.941-6.839c-.015.03-3.941 6.846-3.941 6.846a4.546 4.546 0 0 0-.628 2.321c0 1.406.635 2.665 1.628 3.507Z" fill="#fff"/>
  <defs>
    <filter id="a" x="-1" y="-.75" width="40" height="46.899" filterUnits="userSpaceOnUse" color-interpolation-filters="sRGB">
      <feFlood flood-opacity="0" result="BackgroundImageFix"/>
      <feColorMatrix in="SourceAlpha" values="0 0 0 0 0 0 0 0 0 0 0 0 0 0 0 0 0 0 127 0"/>
      <feOffset dy="1"/>
      <feGaussianBlur stdDeviation="1.5"/>
      <feColorMatrix values="0 0 0 0 0 0 0 0 0 0 0 0 0 0 0 0 0 0 0.2 0"/>
      <feBlend in2="BackgroundImageFix" result="effect1_dropShadow"/>
      <feBlend in="SourceGraphic" in2="effect1_dropShadow" result="shape"/>
    </filter>
  </defs>
</svg>
