<svg width="30" height="30" xmlns="http://www.w3.org/2000/svg">

 <g>
  <title>background</title>
  <rect fill="none" id="canvas_background" height="32" width="32" y="-1" x="-1"/>
 </g>
 <g>
  <title>Layer 1</title>
  <g id="svg_1" fill-rule="evenodd" fill="none">
   <path id="svg_2" d="m29.17163,14.95625c0,7.948 -6.258,14.39 -13.979,14.39c-7.719,0 -13.979,-6.441 -13.979,-14.39c0,-7.947 6.259,-14.39 13.98,-14.39c7.72,0 13.978,6.443 13.978,14.39" fill="#FFF"/>
   <g stroke="null" id="svg_3">
    <path stroke="null" id="svg_4" fill="#FFFFFF" d="m18.69149,13.38993l5.08499,-8.81867l-7.84695,0c-2.18799,0.05885 -2.76144,0.48987 -3.5948,1.93298c0,0 -5.04481,8.75311 -5.04744,8.75852c-0.62693,1.07224 -0.99315,2.33181 -0.99315,3.66371c0,2.63764 1.40654,4.94466 3.5093,6.21269c0,0.0004 -0.00013,0.0008 -0.00013,0.00119c1.08866,0.65466 2.36386,1.03332 3.72653,1.03332c3.99619,0 7.23544,-3.24468 7.23544,-7.24719c0,-1.37068 -0.38084,-2.65177 -1.04176,-3.74537l-1.03201,-1.79115z"/>
    <path stroke="null" id="svg_5" fill="#00A19C" d="m23.77648,4.57125l-5.08499,8.81867l1.03201,1.79115c0.66092,1.09361 1.04176,2.3747 1.04176,3.74537c0,4.00251 -3.23924,7.24719 -7.23544,7.24719c-1.36267,0 -2.63787,-0.37866 -3.72653,-1.03332l0,0c-2.10263,-1.26922 -3.50917,-3.57623 -3.50917,-6.21387c0,-1.33189 0.36622,-2.59147 0.99315,-3.66371c0.00263,-0.00541 5.04744,-8.75852 5.04744,-8.75852c0.83336,-1.44311 1.4068,-1.87413 3.5948,-1.93298l0,0l7.84695,0zm-10.24889,3.55129c-0.01726,0.03338 -4.6492,8.0677 -4.6492,8.0677c-0.47188,0.80177 -0.74115,1.73877 -0.74115,2.73607c0,1.6579 0.74588,3.14059 1.91926,4.13103l0,0l0.19125,0.15424c0.90911,0.69975 2.04751,1.11603 3.28195,1.11603c2.97775,0 5.39233,-2.41876 5.39233,-5.40115c0,-0.9973 -0.27058,-1.93299 -0.74167,-2.73344c-0.00066,-0.00264 -0.00131,-0.00396 -0.00211,-0.00528l0,0l-2.84035,-4.93014l-0.00066,-0.00146l-1.80965,-3.13359zm0.00459,6.80449c2.21403,0 4.00855,1.79509 4.00855,4.00797c0,2.21433 -1.79453,4.00942 -4.00855,4.00942c-2.21417,0 -4.00883,-1.79522 -4.00883,-4.00942c0,-2.21288 1.79466,-4.00797 4.00883,-4.00797zm7.03865,-8.50183l-4.60113,0c-0.58359,0 -0.94955,0.03615 -1.21828,0.1285l0,0l1.86774,3.23954l0,0l1.00435,1.74286l2.94731,-5.1109z"/>
   </g>
  </g>
 </g>
</svg>