<svg xmlns="http://www.w3.org/2000/svg" width="85" height="30" viewBox="0 0 85 30">
    <defs>
        <linearGradient id="sc2mcr28za" x1="20.224%" x2="76.883%" y1="22.16%" y2="99.83%">
            <stop offset="0%" stop-color="#04A4F4"/>
            <stop offset="5%" stop-color="#07AAED"/>
            <stop offset="29%" stop-color="#11C1D0"/>
            <stop offset="53%" stop-color="#19D1BC"/>
            <stop offset="77%" stop-color="#1CDBAF"/>
            <stop offset="100%" stop-color="#1FDEAB"/>
        </linearGradient>
    </defs>
    <g fill="none" fill-rule="evenodd">
        <path fill="#FFF" d="M27.958 14.39c0 7.948-6.258 14.39-13.979 14.39C6.26 28.78 0 22.339 0 14.39 0 6.443 6.259 0 13.98 0c7.72 0 13.978 6.443 13.978 14.39" transform="translate(1.214 .5)"/>
        <g>
            <path fill="#04A4F4" fill-rule="nonzero" d="M3.113 5.949L11.913 7.762 15.433 13.197 10.152 16.821z" transform="translate(1.214 .5) translate(5.574 5.738) matrix(1 0 0 -1 0 22.77)"/>
            <path d="M13.672 11.386L4.872 9.573 1.352 4.138 6.633 0.514z" transform="translate(1.214 .5) translate(5.574 5.738) matrix(1 0 0 -1 0 11.9)"/>
            <path fill="url(#sc2mcr28za)" fill-rule="nonzero" d="M13.672 11.386L4.872 9.573 1.352 4.138 6.633 0.514z" transform="translate(1.214 .5) translate(5.574 5.738) matrix(1 0 0 -1 0 11.9)"/>
            <path fill="#2F49EF" fill-rule="nonzero" d="M6.633 5.949L10.154 11.386 15.433 7.762z" transform="translate(1.214 .5) translate(5.574 5.738) matrix(1 0 0 -1 0 17.335)"/>
        </g>
        <path fill="#FFF" d="M36.028 18.06c.09 1.75 1.308 2.58 2.695 2.58 1.517 0 2.345-.807 2.345-1.8 0-1.35-1.242-1.988-3.105-3.027-3.288-1.94-4.41-3.148-4.41-5.395 0-2.557 2.14-4.308 4.83-4.308 2.964 0 4.92 2.27 4.988 5.135h-2.835c-.068-1.49-.921-2.39-2.16-2.39-1.082 0-2.003.663-2.003 1.682 0 1.276.944 1.765 2.6 2.673 3.104 1.728 4.92 3.17 4.92 5.728 0 2.837-2.323 4.446-5.17 4.446-3.43 0-5.451-2.554-5.523-5.324h2.828zM48.146 16.043h5.978c-.093-1.325-1.225-2.523-2.989-2.523-1.725-.005-2.92 1.155-2.989 2.528v-.005zm8.806 2.017h-8.806c.069 1.465 1.149 2.744 3.185 2.744 1.177.043 2.28-.584 2.874-1.632l2.485.283c-.326 1.634-2.152 3.93-5.371 3.93-3.587 0-6-2.793-6-6.306 0-3.337 2.298-6.154 5.816-6.154 3.587 0 5.817 2.936 5.817 6.366v.77zM65.368 13.916L62.792 13.916 62.792 23.147 59.963 23.147 59.963 13.916 58.147 13.916 58.147 11.172 59.963 11.172 59.963 7.621 62.792 7.621 62.792 11.172 65.368 11.172zM69.067 16.043h5.978c-.09-1.325-1.225-2.523-2.989-2.523-1.727-.005-2.918 1.155-2.989 2.528v-.005zm8.806 2.017h-8.806c.071 1.465 1.152 2.744 3.198 2.744 1.176.04 2.28-.586 2.873-1.632l2.483.283c-.343 1.634-2.162 3.93-5.39 3.93-3.585 0-6-2.793-6-6.306 0-3.337 2.3-6.154 5.816-6.154 3.586 0 5.816 2.936 5.816 6.366l.01.77zM79.507 23.148L82.334 23.148 82.334 5.397 79.507 5.397z" transform="translate(1.214 .5)"/>
    </g>
</svg>
