<svg width="44" height="28" viewBox="0 0 44 28" fill="none" xmlns="http://www.w3.org/2000/svg">
<g clip-path="url(#clip0)">
<path d="M1.56681 29.0677C0.1305 29.0677 -1.03906 27.8977 -1.03906 26.4601V1.5993C-1.03906 0.161499 0.130473 -1.0083 1.56681 -1.0083H42.4606C43.8968 -1.0083 45.0666 0.161551 45.0666 1.5993V26.4601C45.0666 27.8977 43.8968 29.0677 42.4606 29.0677H1.56681Z" fill="white" stroke="#2D333A"/>
<path d="M14 10C14 7.79086 15.7909 6 18 6H26C28.2091 6 30 7.79086 30 10V18C30 20.2091 28.2091 22 26 22H18C15.7909 22 14 20.2091 14 18V10Z" fill="#ED3024"/>
<g clip-path="url(#clip1)">
<path d="M24.0632 11.9895C24.0632 11.7056 24.0316 9.73456 22.0553 8.52037C22.0237 8.5046 21.2964 8.01577 20.1739 8C19.4466 8 18.7036 8.18922 17.9921 8.58344C16.7273 9.24573 16.2688 10.6176 16.1581 11.0118C16.0949 11.2484 16.0632 11.4533 16.0316 11.8476L16 16.3732C16 16.4047 16 16.7201 16.0632 17.0197C16.1107 17.2405 16.1423 17.3509 16.2372 17.5874C16.3953 17.9974 16.7115 18.4862 17.0435 18.8331L17.1067 18.8962C17.5336 19.3219 17.834 19.4954 18.1186 19.6215C18.3399 19.7319 18.6245 19.8108 18.8458 19.8738C19.1621 19.9527 19.4783 19.9527 19.4783 19.9527L24.0791 19.9842C24.4585 19.9685 24.664 19.9369 24.9012 19.8738C25.3281 19.795 26.7036 19.3692 27.3834 18.1078C28.6957 15.8213 27.5257 14.071 27.5257 14.071C26.3241 12.0526 24.3636 11.9895 24.0632 11.9895ZM26.3241 16.2786C26.0237 18.3285 24.1107 18.3758 23.8893 18.3758L20.0474 18.3443C19.2727 18.3443 18.6719 18.1235 18.2451 17.7135C17.834 17.272 17.6285 16.6728 17.6443 15.9001L17.6601 12.0999C17.6601 12.0053 17.6443 9.95532 19.7945 9.68725C19.9051 9.67148 20 9.67148 20.1265 9.67148H20.2055C20.2055 9.67148 20.664 9.68725 21.17 9.93955C21.8182 10.2865 22.2292 10.8699 22.3874 11.6741C22.4032 11.7372 22.4032 11.8003 22.419 11.8791L22.4348 11.9737C22.4348 12.0368 22.4506 12.1314 22.4506 12.3049L22.4348 13.6137L23.747 13.6294H23.8103C23.9368 13.6294 24.0158 13.6452 24.0632 13.6452L24.1581 13.661C24.2213 13.661 24.3004 13.6767 24.3478 13.6925C25.1542 13.866 25.7391 14.276 26.0711 14.9382C26.3241 15.4428 26.3241 15.9001 26.3241 15.9001C26.3399 16.042 26.3399 16.1524 26.3241 16.2786Z" fill="white"/>
</g>
</g>
<path d="M2 1H42V-1H2V1ZM43 2V26H45V2H43ZM42 27H2V29H42V27ZM1 26V2H-1V26H1ZM2 27C1.44772 27 1 26.5523 1 26H-1C-1 27.6569 0.343147 29 2 29V27ZM43 26C43 26.5523 42.5523 27 42 27V29C43.6569 29 45 27.6569 45 26H43ZM42 1C42.5523 1 43 1.44772 43 2H45C45 0.343145 43.6569 -1 42 -1V1ZM2 -1C0.343145 -1 -1 0.343147 -1 2H1C1 1.44772 1.44772 1 2 1V-1Z" fill="#ECEEF1"/>
<defs>
<clipPath id="clip0">
<path d="M0 2C0 0.895431 0.895431 0 2 0H42C43.1046 0 44 0.895431 44 2V26C44 27.1046 43.1046 28 42 28H2C0.895431 28 0 27.1046 0 26V2Z" fill="white"/>
</clipPath>
<clipPath id="clip1">
<rect width="12" height="12" fill="white" transform="translate(16 8)"/>
</clipPath>
</defs>
</svg>
