<svg width="44" height="28" viewBox="0 0 44 28" fill="none" xmlns="http://www.w3.org/2000/svg">
<g clip-path="url(#clip0)">
<path d="M1.56681 29.0677C0.1305 29.0677 -1.03906 27.8977 -1.03906 26.4601V1.5993C-1.03906 0.161501 0.130473 -1.0083 1.56681 -1.0083H42.4606C43.8968 -1.0083 45.0666 0.161553 45.0666 1.5993V26.4601C45.0666 27.8977 43.8968 29.0677 42.4606 29.0677H1.56681Z" fill="white" stroke="#2D333A"/>
<ellipse cx="18.1184" cy="14.2" rx="6.11842" ry="6.2" fill="#EB001B"/>
<ellipse cx="25.3699" cy="14.2" rx="6.11842" ry="6.2" fill="#F79E1B"/>
<path fill-rule="evenodd" clip-rule="evenodd" d="M21.7442 19.1947C23.256 18.0658 24.2368 16.249 24.2368 14.2C24.2368 12.1511 23.256 10.3342 21.7442 9.20541C20.2323 10.3342 19.2515 12.1511 19.2515 14.2C19.2515 16.249 20.2323 18.0658 21.7442 19.1947Z" fill="#FF5F00"/>
</g>
<path d="M2 1H42V-1H2V1ZM43 2V26H45V2H43ZM42 27H2V29H42V27ZM1 26V2H-1V26H1ZM2 27C1.44772 27 1 26.5523 1 26H-1C-1 27.6569 0.343147 29 2 29V27ZM43 26C43 26.5523 42.5523 27 42 27V29C43.6569 29 45 27.6569 45 26H43ZM42 1C42.5523 1 43 1.44772 43 2H45C45 0.343145 43.6569 -1 42 -1V1ZM2 -1C0.343145 -1 -1 0.343147 -1 2H1C1 1.44772 1.44772 1 2 1V-1Z" fill="#ECEEF1"/>
<defs>
<clipPath id="clip0">
<path d="M0 2C0 0.895431 0.895431 0 2 0H42C43.1046 0 44 0.895431 44 2V26C44 27.1046 43.1046 28 42 28H2C0.895431 28 0 27.1046 0 26V2Z" fill="white"/>
</clipPath>
</defs>
</svg>
