<svg width="44" height="28" viewBox="0 0 44 28" fill="none" xmlns="http://www.w3.org/2000/svg">
<mask id="mask0" mask-type="alpha" maskUnits="userSpaceOnUse" x="0" y="0" width="44" height="28">
<path d="M42.4471 0.0310059C43.3045 0.0310059 43.9998 0.726559 43.9998 1.58483V26.446C43.9998 27.2741 43.3525 27.9508 42.5369 27.9974H1.46313C0.677059 27.9526 0.0476339 27.323 0.00244141 26.5366V1.49419C0.0493429 0.678117 0.7255 0.0310059 1.55296 0.0310059" fill="white"/>
</mask>
<g mask="url(#mask0)">
<path fill-rule="evenodd" clip-rule="evenodd" d="M1.56681 29.5677C-0.145934 29.5677 -1.53906 28.1736 -1.53906 26.4601V1.5993C-1.53906 -0.114376 -0.145934 -1.5083 1.56681 -1.5083H42.4606C44.1732 -1.5083 45.5666 -0.114376 45.5666 1.5993V26.4601C45.5666 28.1736 44.1732 29.5677 42.4606 29.5677H1.56681Z" fill="#1B1A19"/>
</g>
<mask id="mask1" mask-type="alpha" maskUnits="userSpaceOnUse" x="0" y="0" width="44" height="28">
<path d="M42.4471 0.0310059C43.3045 0.0310059 43.9998 0.726559 43.9998 1.58483V26.446C43.9998 27.2741 43.3525 27.9508 42.5369 27.9974H1.46313C0.677059 27.9526 0.0476339 27.323 0.00244141 26.5366V1.49419C0.0493429 0.678117 0.7255 0.0310059 1.55296 0.0310059" fill="white"/>
</mask>
<g mask="url(#mask1)">
<path fill-rule="evenodd" clip-rule="evenodd" d="M5.05084 22.1519H5.2348L5.27858 23.6136H5.12309L5.09462 22.3953H5.09026L4.84061 23.1293L4.59095 22.3953H4.5865L4.55804 23.6136H4.40479L4.44852 22.1519H4.63033L4.84061 22.7721L5.05084 22.1519Z" fill="#797B79"/>
<path fill-rule="evenodd" clip-rule="evenodd" d="M6.2022 22.6427L6.02343 23.1709H6.38087L6.2022 22.6427ZM5.97995 23.3024L5.86155 23.6421L5.70215 23.5895L6.09835 22.4718H6.30604L6.70215 23.5895L6.54274 23.6421L6.42682 23.3024H5.97995Z" fill="#797B79"/>
<path fill-rule="evenodd" clip-rule="evenodd" d="M7.57624 22.9933C7.75936 22.9933 7.88047 22.9123 7.88047 22.783C7.88047 22.68 7.80158 22.6033 7.63255 22.6033H7.32838V22.9933H7.57624ZM7.13965 22.4718H7.63815C7.88324 22.4718 8.07763 22.5617 8.07763 22.783C8.07763 22.9232 7.95652 23.0613 7.77911 23.1029L8.13965 23.5654L7.97627 23.6421L7.60159 23.1248H7.32838V23.6136H7.13965V22.4718Z" fill="#797B79"/>
<path fill-rule="evenodd" clip-rule="evenodd" d="M8.55078 23.4821H8.71063V22.6033H8.55078V22.4718H9.01943V22.6033H8.85733V23.4821H9.01943V23.6136H8.55078V23.4821Z" fill="#797B79"/>
<path fill-rule="evenodd" clip-rule="evenodd" d="M10.1465 22.6427L9.96786 23.1709H10.3253L10.1465 22.6427ZM9.92418 23.3024L9.80577 23.6421L9.64648 23.5895L10.0426 22.4718H10.2503L10.6465 23.5895L10.4872 23.6421L10.3711 23.3024H9.92418Z" fill="#797B79"/>
<path fill-rule="evenodd" clip-rule="evenodd" d="M12.8934 23.4821C13.0499 23.4821 13.157 23.3857 13.157 23.1731C13.157 22.9562 13.029 22.8838 12.8462 22.8838H12.6558V23.4821H12.8934ZM12.8122 22.7523C12.9925 22.7523 13.076 22.6735 13.076 22.5202C13.076 22.3405 12.9691 22.2834 12.7576 22.2834H12.6558V22.7523H12.8122ZM12.3398 23.6136V23.4821H12.4808V22.2834H12.3398V22.1519H12.8723C13.0631 22.1519 13.2589 22.2857 13.2589 22.5202C13.2589 22.6406 13.2012 22.7436 13.0734 22.8028C13.2693 22.8751 13.3398 23 13.3398 23.1754C13.3398 23.48 13.1413 23.6136 12.9011 23.6136H12.3398Z" fill="#797B79"/>
<path fill-rule="evenodd" clip-rule="evenodd" d="M13.8101 23.4821H13.97V22.6033H13.8101V22.4718H14.2787V22.6033H14.1166V23.4821H14.2787V23.6136H13.8101V23.4821Z" fill="#797B79"/>
<path fill-rule="evenodd" clip-rule="evenodd" d="M14.978 22.4718H15.1599L15.6022 23.4339L15.6066 23.4294L15.5936 23.1336V22.4718H15.7402V23.6136H15.5585L15.1161 22.6516L15.1117 22.6559L15.1249 22.9539V23.6136H14.978V22.4718Z" fill="#797B79"/>
<path fill-rule="evenodd" clip-rule="evenodd" d="M16.6041 22.6033H16.2886V22.4718H17.0597V22.6033H16.7508V23.6136H16.6041V22.6033Z" fill="#797B79"/>
<path fill-rule="evenodd" clip-rule="evenodd" d="M17.7544 23.4821H17.9142V22.6033H17.7544V22.4718H18.2231V22.6033H18.0609V23.4821H18.2231V23.6136H17.7544V23.4821Z" fill="#797B79"/>
<path fill-rule="evenodd" clip-rule="evenodd" d="M20.6631 22.3469H20.6582L20.4811 23.0307H20.84L20.6631 22.3469ZM20.4429 23.1621L20.3185 23.6422L20.1606 23.6027L20.5649 22.1519H20.7564L21.1606 23.6027L21.0028 23.6422L20.8783 23.1621H20.4429Z" fill="#797B79"/>
<path fill-rule="evenodd" clip-rule="evenodd" d="M22.063 23.4821C22.217 23.4821 22.3607 23.4535 22.3607 23.2979C22.3607 23.1841 22.2718 23.092 22.1049 23.092H21.8593V23.4821H22.063ZM22.0551 22.9605C22.2068 22.9605 22.2825 22.8795 22.2825 22.7765C22.2825 22.6406 22.1676 22.6033 22.0447 22.6033H21.8593V22.9605H22.0551ZM21.5435 23.6136V23.4821H21.6843V22.6033H21.5435V22.4718H21.9715C22.3165 22.4718 22.4653 22.5815 22.4653 22.7765C22.4653 22.875 22.4155 22.9626 22.3109 23.011C22.4597 23.0504 22.5435 23.1577 22.5435 23.2871C22.5435 23.4931 22.3815 23.6136 22.097 23.6136H21.5435Z" fill="#797B79"/>
<path fill-rule="evenodd" clip-rule="evenodd" d="M23.1626 23.4821H23.3451C23.5711 23.4821 23.6716 23.3725 23.6716 23.0439C23.6716 22.6932 23.5531 22.6033 23.34 22.6033H23.1626V23.4821ZM22.8516 22.4718H23.2986C23.6791 22.4718 23.8516 22.6056 23.8516 23.0285C23.8516 23.3857 23.7795 23.6136 23.2986 23.6136H22.8516V23.4821H22.9906V22.6033H22.8516V22.4718Z" fill="#797B79"/>
<path fill-rule="evenodd" clip-rule="evenodd" d="M24.3527 22.4718V23.2497C24.3527 23.4164 24.4012 23.4953 24.552 23.4953C24.7361 23.4953 24.7757 23.4141 24.7757 23.2497V22.4718H24.9222V23.3199C24.9222 23.4712 24.8149 23.6334 24.5631 23.6334C24.3156 23.6334 24.2061 23.4778 24.2061 23.3111V22.4718H24.3527Z" fill="#797B79"/>
<path fill-rule="evenodd" clip-rule="evenodd" d="M25.5928 22.4718H25.7397V23.4821H26.3375V23.6136H25.5928V22.4718Z" fill="#797B79"/>
<path fill-rule="evenodd" clip-rule="evenodd" d="M26.9077 22.4718H27.0546V23.4821H27.6525V23.6136H26.9077V22.4718Z" fill="#797B79"/>
<path fill-rule="evenodd" clip-rule="evenodd" d="M28.5537 22.6427L28.3751 23.1709H28.7323L28.5537 22.6427ZM28.3314 23.3024L28.213 23.6421L28.0537 23.5895L28.4499 22.4718H28.6575L29.0537 23.5895L28.8944 23.6421L28.7783 23.3024H28.3314Z" fill="#797B79"/>
<path fill-rule="evenodd" clip-rule="evenodd" d="M29.4497 22.4718H29.5963V22.9452H30.0475V22.4718H30.1941V23.6136H30.0475V23.0767H29.5963V23.6136H29.4497V22.4718Z" fill="#797B79"/>
</g>
<path fill-rule="evenodd" clip-rule="evenodd" d="M20.9882 5.94992C20.9882 6.26985 20.7505 6.47605 20.3603 6.47605H19.709V5.58221C19.709 5.48643 19.7868 5.40433 19.8793 5.40433H20.3556C20.7505 5.40433 20.9882 5.58933 20.9882 5.93647V5.94992ZM22.077 5.89772V5.8887C22.077 4.98893 21.4357 4.45837 20.4407 4.45837H18.8939C18.7469 4.45837 18.6143 4.57955 18.6143 4.72215V8.5203H19.709V7.49256C19.709 7.42588 19.7703 7.35921 19.8317 7.35921H20.2196L20.9818 8.5203H22.2439L21.3348 7.15657C21.7959 6.92514 22.077 6.50136 22.077 5.89772Z" fill="white"/>
<path fill-rule="evenodd" clip-rule="evenodd" d="M25.4921 6.49945C25.4921 7.08538 25.0918 7.58556 24.4843 7.58556C23.891 7.58556 23.4787 7.07264 23.4787 6.4898V6.47604C23.4787 5.88869 23.8775 5.39183 24.4743 5.39183C25.0796 5.39183 25.4921 5.90411 25.4921 6.4898V6.49945ZM24.4843 4.375C23.2698 4.375 22.3594 5.32191 22.3594 6.4898V6.49945C22.3594 7.66948 23.2601 8.60302 24.4743 8.60302C25.6917 8.60302 26.6067 7.65406 26.6067 6.4898V6.47604C26.6067 5.31139 25.7031 4.375 24.4843 4.375Z" fill="white"/>
<path fill-rule="evenodd" clip-rule="evenodd" d="M29.7039 4.71899V6.60679L28.0837 4.45837H27.3433C27.1879 4.45837 27.0625 4.58658 27.0625 4.7443V8.5203H28.1441V6.29231L29.831 8.5203H30.7864V4.45837H29.9859C29.8368 4.45837 29.7039 4.57156 29.7039 4.71899Z" fill="white"/>
<path fill-rule="evenodd" clip-rule="evenodd" d="M14.9058 4.7337V5.4438H16.0857V8.5203H17.1832V5.57423C17.1832 5.50439 17.2384 5.4438 17.3203 5.4438H18.3671V4.45837H15.1851C15.0362 4.45837 14.9058 4.59497 14.9058 4.7337Z" fill="white"/>
<path fill-rule="evenodd" clip-rule="evenodd" d="M10.1487 5.94992C10.1487 6.26985 9.91386 6.47605 9.52632 6.47605H9.00504V5.40433H9.51756C9.91386 5.40433 10.1487 5.58933 10.1487 5.93647V5.94992ZM9.60098 4.45837H8.19246C8.04336 4.45837 7.91162 4.57725 7.91162 4.72215V8.5203H9.00504V7.49256C9.00504 7.42968 9.07048 7.35921 9.13301 7.35921H9.54621C10.5236 7.35921 11.2419 6.85522 11.2419 5.89772V5.8887C11.2419 4.98893 10.6001 4.45837 9.60098 4.45837Z" fill="white"/>
<path fill-rule="evenodd" clip-rule="evenodd" d="M11.4776 4.73599V8.5203H14.6499V7.55955H12.5601V7.07194C12.5601 6.99372 12.6264 6.91747 12.6955 6.91747H14.4039V6.03075H12.5601V5.56908C12.5601 5.49735 12.6196 5.41461 12.6874 5.41461H14.6499V4.45837H11.7594C11.6071 4.45837 11.476 4.58658 11.4776 4.73599Z" fill="white"/>
<path fill-rule="evenodd" clip-rule="evenodd" d="M37.2767 5.98904C36.7263 5.86273 36.5911 5.78071 36.5911 5.59729V5.58353C36.5911 5.43831 36.7188 5.32188 36.9859 5.32188C37.2257 5.32188 37.4866 5.38832 37.7438 5.51558C37.7438 5.51558 37.8017 5.54477 37.8284 5.55624C37.9006 5.59246 37.9884 5.62102 38.0918 5.598C38.1718 5.58218 38.2264 5.51234 38.2933 5.4255L38.6336 4.9299C38.2098 4.57532 37.6874 4.38684 37.013 4.38684C36.0681 4.38684 35.4855 4.93338 35.4855 5.68967V5.69797C35.4855 6.53629 36.1363 6.77831 36.9766 6.97771C37.51 7.10331 37.6382 7.19569 37.6382 7.36558V7.37586C37.6382 7.55145 37.4794 7.65403 37.1889 7.65403C36.8424 7.65403 36.513 7.55857 36.2035 7.37389C36.1133 7.32936 36.003 7.26687 35.8617 7.29891C35.805 7.3133 35.7589 7.3534 35.7113 7.41201L35.2979 7.92177C35.7851 8.36058 36.4513 8.58884 37.1488 8.58884C38.109 8.58884 38.7435 8.09514 38.7435 7.26687V7.25691C38.7435 6.49682 38.1768 6.19065 37.2767 5.98904Z" fill="white"/>
<path fill-rule="evenodd" clip-rule="evenodd" d="M33.2094 5.79229L33.6462 6.94824H32.7616L33.2094 5.79229ZM32.172 8.5203L32.3726 8.00548C32.4008 7.92275 32.4694 7.84002 32.5516 7.82625H33.9604L34.2378 8.5203H35.4097L33.7421 4.45837H32.8479C32.7134 4.4734 32.6615 4.54459 32.6119 4.64076L31.022 8.5203H32.172Z" fill="white"/>
<path fill-rule="evenodd" clip-rule="evenodd" d="M10.4778 11.7299C10.28 11.4471 10.0232 11.2971 9.67135 11.2971C9.3965 11.2971 9.07018 11.4295 9.07018 11.7475C9.07018 12.5076 11.2932 11.8888 11.2932 13.5417C11.2932 14.5489 10.3576 14.9025 9.51633 14.9025C8.88121 14.9025 8.33204 14.7342 7.91162 14.2482L8.59821 13.5856C8.86408 13.886 9.139 14.1068 9.5764 14.1068C9.87683 14.1068 10.2629 13.9566 10.2629 13.6209C10.2629 12.746 8.04029 13.4353 8.04029 11.8184C8.04029 10.8726 8.86408 10.4489 9.69662 10.4489C10.2462 10.4489 10.8295 10.6252 11.1643 11.0935L10.4778 11.7299Z" fill="#FFFFFE"/>
<path fill-rule="evenodd" clip-rule="evenodd" d="M11.71 10.5547H12.6885V11.2176H12.7053C12.8859 10.8197 13.2804 10.4489 13.9668 10.4489C14.602 10.4489 15.0398 10.705 15.2546 11.2349C15.5547 10.696 15.9924 10.4489 16.6105 10.4489C17.7092 10.4489 18.0952 11.2528 18.0952 12.269V14.7965H17.0653V12.3928C17.0653 11.8626 16.9109 11.4029 16.3019 11.4029C15.6574 11.4029 15.4178 11.9511 15.4178 12.4986V14.7965H14.3875V12.269C14.3875 11.7475 14.1817 11.4029 13.6839 11.4029C13.0057 11.4029 12.7396 11.9152 12.7396 12.4812V14.7965H11.71V10.5547Z" fill="#FFFFFE"/>
<path fill-rule="evenodd" clip-rule="evenodd" d="M21.1747 12.8961H20.9605C20.3941 12.8961 19.4153 12.941 19.4153 13.5507C19.4153 13.9389 19.8019 14.1068 20.1364 14.1068C20.8404 14.1068 21.1747 13.727 21.1747 13.1346V12.8961ZM21.2348 14.213H21.2095C20.9179 14.69 20.4368 14.9025 19.8876 14.9025C19.1239 14.9025 18.3857 14.4695 18.3857 13.6296C18.3857 12.2511 19.9477 12.1543 20.9779 12.1543H21.2348V12.0392C21.2348 11.518 20.8404 11.2438 20.2914 11.2438C19.862 11.2438 19.4673 11.4205 19.1924 11.6856L18.6516 11.1291C19.1067 10.6518 19.7503 10.4489 20.4027 10.4489C22.162 10.4489 22.162 11.7567 22.162 12.3569V14.7965H21.2348V14.213Z" fill="#FFFFFE"/>
<path fill-rule="evenodd" clip-rule="evenodd" d="M22.7021 10.5547H23.732V11.2266H23.7495C23.9724 10.7399 24.4273 10.4489 24.9681 10.4489C25.0967 10.4489 25.2171 10.4751 25.3374 10.5104V11.5356C25.1651 11.4913 25.0023 11.4561 24.8391 11.4561C23.8696 11.4561 23.732 12.2957 23.732 12.5252V14.7965H22.7021V10.5547Z" fill="#FFFFFE"/>
<path fill-rule="evenodd" clip-rule="evenodd" d="M25.7954 11.456V10.5546H26.645V9.54285H27.675V10.5546H28.5449V11.456H27.675V13.3115C27.675 13.7359 27.5847 14.0006 28.0395 14.0006C28.2195 14.0006 28.4686 13.9654 28.5975 13.8686V14.7608C28.383 14.8669 28.0221 14.9025 27.7821 14.9025C26.6918 14.9025 26.645 14.3985 26.645 13.3999V11.456H25.7954Z" fill="#FFFFFE"/>
<path fill-rule="evenodd" clip-rule="evenodd" d="M31.4484 12.0286C31.4484 11.6209 31.1896 11.2914 30.5956 11.2914H29.8646V12.7576H30.5956C31.1896 12.7576 31.4484 12.4203 31.4484 12.0286ZM32.1667 12.0414C32.1667 12.9592 31.5766 13.5667 30.4805 13.5667H29.8646V14.6627C29.8646 14.8147 29.7942 14.8545 29.6784 14.8545H29.2871C29.1713 14.8545 29.1006 14.8147 29.1006 14.6627V10.7015C29.1006 10.5822 29.1392 10.5098 29.2871 10.5098H30.4867C31.5898 10.5098 32.1667 11.1304 32.1667 12.0414Z" fill="#FFFFFE"/>
<path fill-rule="evenodd" clip-rule="evenodd" d="M34.545 13.1448L33.9435 11.491L33.342 13.1448H34.545ZM35.8243 14.8522H35.2328C35.0914 14.8522 35.0403 14.8125 34.989 14.6541L34.7284 13.8828H33.1583L32.8977 14.6541C32.8469 14.8125 32.7953 14.8522 32.6546 14.8522H32.0624C31.9213 14.8522 31.9213 14.7464 31.9534 14.6676L33.3762 10.7146C33.4276 10.5758 33.4979 10.5098 33.639 10.5098H34.2545C34.3952 10.5098 34.4594 10.5758 34.517 10.7146L35.9336 14.6676C35.9657 14.7464 35.9657 14.8522 35.8243 14.8522Z" fill="#FFFFFE"/>
<path fill-rule="evenodd" clip-rule="evenodd" d="M38.7284 10.7037L37.4861 12.9859V14.6779C37.4861 14.8295 37.4157 14.8692 37.3003 14.8692H36.8199C36.6981 14.8692 36.6337 14.8295 36.6337 14.6779V12.9859L35.3401 10.7037C35.3083 10.631 35.3208 10.5188 35.4431 10.5188H35.9388C36.0863 10.5188 36.1508 10.5387 36.2407 10.7168L37.0727 12.222L37.8797 10.7168C37.9628 10.5387 38.0273 10.5188 38.1751 10.5188H38.6254C38.7474 10.5188 38.7605 10.631 38.7284 10.7037Z" fill="#FFFFFE"/>
<path fill-rule="evenodd" clip-rule="evenodd" d="M5.27722 18.9666H4.4292V18.7761H5.57636L4.642 20.9355L4.4569 20.8496L5.27722 18.9666Z" fill="#797B79"/>
<path fill-rule="evenodd" clip-rule="evenodd" d="M6.4036 19.8367C6.4036 20.6684 6.5518 20.7226 6.76148 20.7226C6.99878 20.7226 7.11915 20.6241 7.11915 19.8367C7.11915 19.0176 6.98039 18.9478 6.76148 18.9478C6.37292 18.9478 6.4036 19.4146 6.4036 19.8367ZM7.33498 19.8367C7.33498 20.1764 7.39038 20.9227 6.76148 20.9227C6.13229 20.9227 6.18777 20.202 6.18777 19.8367C6.18777 19.3381 6.16315 18.7476 6.76148 18.7476C7.41518 18.7476 7.33498 19.5986 7.33498 19.8367Z" fill="#797B79"/>
<path fill-rule="evenodd" clip-rule="evenodd" d="M8.91821 19.2876C8.91821 19.0969 8.80737 18.9478 8.613 18.9478C8.41872 18.9478 8.30767 19.0969 8.30767 19.2876C8.30767 19.5004 8.46187 19.5829 8.613 19.6873C8.76414 19.5829 8.91821 19.5004 8.91821 19.2876ZM8.23994 20.364C8.23994 20.5827 8.40643 20.7226 8.613 20.7226C8.81958 20.7226 8.98616 20.5827 8.98616 20.364C8.98616 20.113 8.79499 20.024 8.613 19.9068C8.4311 20.024 8.23994 20.113 8.23994 20.364ZM9.20204 20.3543C9.20204 20.7003 8.93981 20.9227 8.613 20.9227C8.28616 20.9227 8.02393 20.7003 8.02393 20.3543C8.02393 20.0589 8.2028 19.9192 8.43729 19.7987C8.24907 19.6778 8.09188 19.5319 8.09188 19.2876C8.09188 18.9793 8.31091 18.7476 8.613 18.7476C8.91527 18.7476 9.13417 18.9793 9.13417 19.2876C9.13417 19.5319 8.9801 19.6778 8.79179 19.7987C9.02325 19.9192 9.20204 20.0589 9.20204 20.3543Z" fill="#797B79"/>
<path fill-rule="evenodd" clip-rule="evenodd" d="M10.1311 19.611L10.7387 18.9666H9.88135V18.7761H11.0224V18.9666L10.4518 19.5667C10.7726 19.5605 11.0469 19.7543 11.0469 20.1066C11.0469 20.389 10.9021 20.6083 10.6738 20.7512C10.5043 20.8591 10.3039 20.9226 9.90918 20.9226V20.7226C10.2482 20.7226 10.3933 20.6841 10.5012 20.6209C10.6831 20.5193 10.8311 20.335 10.8311 20.113C10.8311 19.8432 10.5998 19.7572 10.3717 19.7572C10.2914 19.7572 10.2114 19.7732 10.1311 19.7829V19.611Z" fill="#797B79"/>
<path fill-rule="evenodd" clip-rule="evenodd" d="M12.6208 19.2876C12.6208 19.0969 12.5098 18.9478 12.3156 18.9478C12.1213 18.9478 12.0103 19.0969 12.0103 19.2876C12.0103 19.5004 12.1644 19.5829 12.3156 19.6873C12.4666 19.5829 12.6208 19.5004 12.6208 19.2876ZM11.9425 20.364C11.9425 20.5827 12.1089 20.7226 12.3156 20.7226C12.5221 20.7226 12.6887 20.5827 12.6887 20.364C12.6887 20.113 12.4975 20.024 12.3156 19.9068C12.1336 20.024 11.9425 20.113 11.9425 20.364ZM12.9045 20.3543C12.9045 20.7003 12.6424 20.9227 12.3156 20.9227C11.9886 20.9227 11.7266 20.7003 11.7266 20.3543C11.7266 20.0589 11.9054 19.9192 12.1399 19.7987C11.9517 19.6778 11.7945 19.5319 11.7945 19.2876C11.7945 18.9793 12.0133 18.7476 12.3156 18.7476C12.6177 18.7476 12.8367 18.9793 12.8367 19.2876C12.8367 19.5319 12.6825 19.6778 12.4944 19.7987C12.7257 19.9192 12.9045 20.0589 12.9045 20.3543Z" fill="#797B79"/>
<path fill-rule="evenodd" clip-rule="evenodd" d="M14.102 19.0334L13.7259 19.1827L13.661 18.989L14.3087 18.7351V20.7036H14.7497V20.8941H13.584V20.7036H14.102V19.0334Z" fill="#797B79"/>
<path fill-rule="evenodd" clip-rule="evenodd" d="M17.8042 19.0334L17.4281 19.1827L17.3633 18.989L18.0109 18.7351V20.7036H18.4521V20.8941H17.2861V20.7036H17.8042V19.0334Z" fill="#797B79"/>
<path fill-rule="evenodd" clip-rule="evenodd" d="M19.147 20.7036L19.9089 19.6906C20.0043 19.5636 20.0813 19.4649 20.0813 19.2938C20.0813 19.094 19.9518 18.9478 19.7515 18.9478C19.5078 18.9478 19.3845 19.1445 19.3537 19.373L19.1501 19.3446C19.1994 18.9923 19.3876 18.7476 19.7515 18.7476C20.0753 18.7476 20.2973 18.9509 20.2973 19.2876C20.2973 19.4907 20.1986 19.6496 20.0813 19.8052L19.4092 20.7036H20.2943V20.8941H19.147V20.7036Z" fill="#797B79"/>
<path fill-rule="evenodd" clip-rule="evenodd" d="M21.2386 19.611L21.846 18.9666H20.9888V18.7761H22.1296V18.9666L21.5592 19.5667C21.88 19.5605 22.1545 19.7543 22.1545 20.1066C22.1545 20.389 22.0095 20.6083 21.7817 20.7512C21.6118 20.8591 21.4114 20.9226 21.0166 20.9226V20.7226C21.356 20.7226 21.5008 20.6841 21.6087 20.6209C21.7905 20.5193 21.9387 20.335 21.9387 20.113C21.9387 19.8432 21.7074 19.7572 21.4793 19.7572C21.399 19.7572 21.3187 19.7732 21.2386 19.7829V19.611Z" fill="#797B79"/>
<path fill-rule="evenodd" clip-rule="evenodd" d="M22.8369 20.364L23.1421 18.7351L23.3488 18.7921L23.0834 20.1733H23.6416V19.0969H23.8484V20.1733H24.0117V20.364H23.8484V20.8941H23.6416V20.364H22.8369Z" fill="#797B79"/>
<path fill-rule="evenodd" clip-rule="evenodd" d="M24.7718 18.7761H25.8263V18.9666H24.9784V19.6177C25.0801 19.5795 25.1755 19.551 25.2836 19.551C25.5858 19.551 25.8419 19.7605 25.8419 20.113C25.8419 20.389 25.6999 20.618 25.4779 20.7636C25.3174 20.8688 25.1079 20.9226 24.707 20.9226V20.7226C24.9629 20.7226 25.1694 20.7065 25.3082 20.6307C25.4932 20.529 25.626 20.335 25.626 20.113C25.626 19.8875 25.4779 19.751 25.262 19.751C25.1325 19.751 25.0307 19.8016 24.9197 19.8622H24.7718V18.7761Z" fill="#797B79"/>
<path fill-rule="evenodd" clip-rule="evenodd" d="M27.1285 20.7226C27.3815 20.7226 27.4893 20.494 27.4893 20.2369C27.4893 19.9954 27.4181 19.7478 27.1438 19.7478C26.9961 19.7478 26.8694 19.8527 26.7645 19.9544C26.7676 20.6181 26.9406 20.7226 27.1285 20.7226ZM27.5018 19.1066C27.406 19.0207 27.3043 18.9478 27.1716 18.9478C26.7986 18.9478 26.7737 19.4367 26.7645 19.7192C26.888 19.6111 27.0114 19.5479 27.1747 19.5479C27.5633 19.5479 27.7049 19.878 27.7049 20.2273C27.7049 20.605 27.5078 20.9227 27.1131 20.9227C26.5827 20.9227 26.5488 20.2622 26.5488 19.8589C26.5488 19.4272 26.6012 18.7476 27.1626 18.7476C27.332 18.7476 27.4953 18.8144 27.6188 18.9319L27.5018 19.1066Z" fill="#797B79"/>
<path fill-rule="evenodd" clip-rule="evenodd" d="M31.195 18.9666H30.3467V18.7761H31.4938L30.5595 20.9355L30.3744 20.8496L31.195 18.9666Z" fill="#797B79"/>
<path fill-rule="evenodd" clip-rule="evenodd" d="M32.9843 19.2876C32.9843 19.0969 32.873 18.9478 32.6787 18.9478C32.4848 18.9478 32.3738 19.0969 32.3738 19.2876C32.3738 19.5004 32.5279 19.5829 32.6787 19.6873C32.83 19.5829 32.9843 19.5004 32.9843 19.2876ZM32.3058 20.364C32.3058 20.5827 32.4723 20.7226 32.6787 20.7226C32.8854 20.7226 33.0519 20.5827 33.0519 20.364C33.0519 20.113 32.8609 20.024 32.6787 19.9068C32.4973 20.024 32.3058 20.113 32.3058 20.364ZM33.268 20.3543C33.268 20.7003 33.0057 20.9227 32.6787 20.9227C32.3521 20.9227 32.0898 20.7003 32.0898 20.3543C32.0898 20.0589 32.2688 19.9192 32.5029 19.7987C32.3151 19.6778 32.1578 19.5319 32.1578 19.2876C32.1578 18.9793 32.3767 18.7476 32.6787 18.7476C32.9811 18.7476 33.2 18.9793 33.2 19.2876C33.2 19.5319 33.0459 19.6778 32.8577 19.7987C33.0889 19.9192 33.268 20.0589 33.268 20.3543Z" fill="#797B79"/>
<path fill-rule="evenodd" clip-rule="evenodd" d="M34.53 18.9478C34.2774 18.9478 34.1692 19.1764 34.1692 19.4367C34.1692 19.6778 34.2372 19.9225 34.5148 19.9225C34.6596 19.9225 34.7891 19.8178 34.8909 19.7192C34.8909 19.0682 34.7247 18.9478 34.53 18.9478ZM34.154 20.564C34.2496 20.6527 34.3543 20.7226 34.487 20.7226C34.8603 20.7226 34.8816 20.2337 34.8909 19.9509C34.7706 20.0589 34.6443 20.1226 34.4841 20.1226C34.0956 20.1226 33.9536 19.7955 33.9536 19.4429C33.9536 19.0682 34.1479 18.7476 34.5425 18.7476C35.0759 18.7476 35.1069 19.4079 35.1069 19.8113C35.1069 20.2431 35.0545 20.9227 34.4934 20.9227C34.3269 20.9227 34.1604 20.856 34.0369 20.7384L34.154 20.564Z" fill="#797B79"/>
<path fill-rule="evenodd" clip-rule="evenodd" d="M36.3169 19.0334L35.9408 19.1827L35.876 18.989L36.5236 18.7351V20.7036H36.9648V20.8941H35.7988V20.7036H36.3169V19.0334Z" fill="#797B79"/>
<path fill-rule="evenodd" clip-rule="evenodd" d="M37.8754 19.8367C37.8754 20.6684 38.0231 20.7226 38.2327 20.7226C38.4704 20.7226 38.5906 20.6241 38.5906 19.8367C38.5906 19.0176 38.4519 18.9478 38.2327 18.9478C37.8445 18.9478 37.8754 19.4146 37.8754 19.8367ZM38.8066 19.8367C38.8066 20.1764 38.8621 20.9227 38.2327 20.9227C37.604 20.9227 37.6595 20.202 37.6595 19.8367C37.6595 19.3381 37.6349 18.7476 38.2327 18.7476C38.8867 18.7476 38.8066 19.5986 38.8066 19.8367Z" fill="#797B79"/>
</svg>
