<svg width="44" height="28" viewBox="0 0 44 28" fill="none" xmlns="http://www.w3.org/2000/svg">
<g clip-path="url(#clip0)">
<path d="M1.56681 29.0677C0.1305 29.0677 -1.03906 27.8977 -1.03906 26.4601V1.5993C-1.03906 0.161501 0.130473 -1.0083 1.56681 -1.0083H42.4606C43.8968 -1.0083 45.0666 0.161553 45.0666 1.5993V26.4601C45.0666 27.8977 43.8968 29.0677 42.4606 29.0677H1.56681Z" fill="white" stroke="#2D333A"/>
<path d="M16.979 21.6335L25.3985 19.9485L28.7666 14.897L23.7135 11.5292L16.979 21.6335Z" fill="#04A4F4"/>
<path d="M27.0813 6.47764L18.662 8.16237L15.2939 13.2138L20.3468 16.5819L27.0813 6.47764Z" fill="url(#paint0_linear)"/>
<path d="M20.3467 16.5819L23.7148 11.5291L28.7662 14.8969L20.3467 16.5819Z" fill="#2F49EF"/>
</g>
<path d="M1 1H43V-1H1V1ZM43 1V27H45V1H43ZM43 27H0.999999V29H43V27ZM1 27V1H-1V27H1ZM0.999999 27H1H-1C-1 28.1046 -0.104572 29 0.999999 29V27ZM43 27V29C44.1046 29 45 28.1046 45 27H43ZM43 1H45C45 -0.104568 44.1046 -1 43 -1V1ZM1 -1C-0.104569 -1 -1 -0.104571 -1 1H1V1V-1Z" fill="#ECEEF1"/>
<defs>
<linearGradient id="paint0_linear" x1="11.7991" y1="12.2799" x2="17.0461" y2="1.50416" gradientUnits="userSpaceOnUse">
<stop stop-color="#04A4F4"/>
<stop offset="0.05" stop-color="#07AAED"/>
<stop offset="0.29" stop-color="#11C1D0"/>
<stop offset="0.53" stop-color="#19D1BC"/>
<stop offset="0.77" stop-color="#1CDBAF"/>
<stop offset="1" stop-color="#1FDEAB"/>
</linearGradient>
<clipPath id="clip0">
<path d="M0 1C0 0.447715 0.447715 0 1 0H43C43.5523 0 44 0.447715 44 1V27C44 27.5523 43.5523 28 43 28H0.999999C0.447714 28 0 27.5523 0 27V1Z" fill="white"/>
</clipPath>
</defs>
</svg>
