<svg width="44" height="28" viewBox="0 0 44 28" fill="none" xmlns="http://www.w3.org/2000/svg">
<path d="M0 2C0 0.895431 0.895431 0 2 0H42C43.1046 0 44 0.895431 44 2V26C44 27.1046 43.1046 28 42 28H2C0.895431 28 0 27.1046 0 26V2Z" fill="white"/>
<g clip-path="url(#clip0)">
<path d="M9.14259 1H19.5122C20.9539 1 21.8644 2.18872 21.5356 3.63035L16.7048 24.3696C16.3761 25.8113 14.9091 27 13.4675 27H3.09785C1.65621 27 0.745709 25.8113 1.0745 24.3696L5.90524 3.63035C6.23403 2.18872 7.70096 1 9.14259 1Z" fill="#E31937"/>
<path d="M18.6539 1H30.5916C32.0333 1 31.3757 2.18872 31.0469 3.63035L26.2161 24.3696C25.8873 25.8113 25.9885 27 24.5216 27H12.5838C11.1422 27 10.2317 25.8113 10.5858 24.3696L15.4165 3.63035C15.7706 2.18872 17.2122 1 18.6539 1Z" fill="#00447C"/>
<path d="M30.1108 1H40.4804C41.922 1 42.8326 2.18872 42.4785 3.63035L37.6477 24.3696C37.3189 25.8113 35.852 27 34.4104 27H24.0407C22.5991 27 21.6886 25.8113 22.0174 24.3696L26.8481 3.63035C27.2022 2.18872 28.6691 1 30.1108 1Z" fill="#007B85"/>
<path fill-rule="evenodd" clip-rule="evenodd" d="M28.3911 20.5H29.3775L29.6557 19.5642H28.6693L28.3911 20.5ZM29.1752 17.9202L28.8464 19.0331C28.8464 19.0331 29.2258 18.8308 29.4281 18.7802C29.6304 18.7296 29.9339 18.7043 29.9339 18.7043L30.1616 17.9202H29.1752ZM29.6557 16.3016L29.3269 17.3638C29.3269 17.3638 29.681 17.1868 29.8833 17.1362C30.0857 17.0856 30.3892 17.0603 30.3892 17.0603L30.6168 16.2763H29.6557V16.3016ZM31.8055 16.3016L30.5409 20.5H30.895L30.6421 21.3599H30.3133L30.2374 21.6381H29.0234L29.0993 21.3599H26.646L26.8989 20.5506H27.1518L28.4417 16.3016L28.6946 15.4417H29.9339L29.8075 15.8716C29.8075 15.8716 30.1363 15.644 30.4398 15.5681C30.7433 15.4922 32.539 15.4669 32.539 15.4669L32.2861 16.3269H31.8055" fill="white"/>
<path d="M32.3613 15.4669H33.6765L33.7018 15.9475C33.7018 16.0233 33.7524 16.0739 33.9294 16.0739H34.2076L33.9547 16.8833H33.2465C32.6395 16.9338 32.4119 16.6556 32.4119 16.3774L32.3613 15.4669Z" fill="white"/>
<path d="M32.5394 19.2859H31.3001L31.5024 18.5778H32.9187L33.1211 17.9202H31.7047L31.9324 17.1108H35.8526L35.5997 17.9202H34.2845L34.0822 18.5778H35.3973L35.1697 19.2859H33.7534L33.5005 19.5894H34.0822L34.2339 20.4999C34.2592 20.6011 34.2592 20.6517 34.2845 20.677C34.3098 20.7023 34.4868 20.7276 34.588 20.7276H34.765L34.4868 21.6128H34.0316C33.9557 21.6128 33.8545 21.6128 33.7281 21.6128C33.6016 21.6128 33.5005 21.5116 33.3993 21.4863C33.3234 21.4357 33.1969 21.3599 33.1717 21.1828L33.0199 20.2723L32.3623 21.1575C32.16 21.4357 31.8818 21.6634 31.4012 21.6634H30.4907L30.7183 20.8793H31.0724C31.1736 20.8793 31.2495 20.8287 31.3254 20.8034C31.4012 20.7782 31.4518 20.7529 31.5277 20.6517L32.5394 19.2859Z" fill="white"/>
<path d="M18.8556 17.3132H22.1689L21.9159 18.0973H20.6008L20.3984 18.7802H21.7389L21.486 19.5895H20.1455L19.8167 20.677C19.7661 20.8035 20.1455 20.8035 20.272 20.8035L20.9549 20.7023L20.6766 21.6128H19.1591C19.0327 21.6128 18.9568 21.5876 18.805 21.5623C18.6786 21.537 18.628 21.4611 18.5521 21.3852C18.5015 21.2841 18.4004 21.2335 18.4763 21.0311L18.9062 19.5895H18.1475L18.4004 18.7549H19.1591L19.3615 18.072H18.6027L18.8556 17.3132Z" fill="white"/>
<path d="M21.0815 15.8969H22.4473L22.1944 16.7315H20.3481L20.1457 16.9086C20.0699 16.9844 20.0193 16.9591 19.9181 17.0097C19.8169 17.0603 19.5893 17.1615 19.3111 17.1615H18.7041L18.9317 16.3774H19.1088C19.2605 16.3774 19.3617 16.3521 19.4123 16.3268C19.4629 16.2763 19.5387 16.2004 19.6146 16.0739L19.9687 15.4669H21.3092L21.0815 15.8969Z" fill="white"/>
<path fill-rule="evenodd" clip-rule="evenodd" d="M23.6869 17.2626C23.6869 17.2626 24.0663 16.9338 24.6986 16.8074C24.8503 16.7821 25.7355 16.7821 25.7355 16.7821L25.862 16.3268H23.9398L23.6869 17.2626ZM25.4573 17.6167H23.5604L23.434 17.9961H25.078C25.2803 17.9708 25.3056 17.9961 25.3309 17.9961L25.4573 17.6167ZM23.004 15.4669H24.1674L23.9904 16.0486C23.9904 16.0486 24.3445 15.7451 24.6227 15.644C24.8756 15.5428 25.4573 15.4669 25.4573 15.4669H27.3289L26.6966 17.5914C26.5955 17.9455 26.469 18.1984 26.3931 18.2996C26.3173 18.4008 26.2414 18.5019 26.0896 18.5778C25.9379 18.6537 25.7861 18.7043 25.6597 18.7296C25.5332 18.7296 25.3562 18.7296 25.078 18.7549H23.2569L22.7511 20.4241C22.7005 20.6012 22.6752 20.677 22.7005 20.7276C22.7258 20.7782 22.7764 20.8035 22.8776 20.8035L23.6616 20.7276L23.3834 21.6381H22.4982C22.22 21.6381 22.0176 21.6381 21.8659 21.6128C21.7394 21.6128 21.5877 21.6128 21.4865 21.537C21.4106 21.4611 21.2842 21.3599 21.2842 21.2587C21.2842 21.1576 21.3348 21.0058 21.3853 20.8035L23.004 15.4669Z" fill="white"/>
<path d="M26.3937 18.8813L26.2926 19.3872C26.242 19.5389 26.2167 19.6654 26.0902 19.7666C25.9638 19.8677 25.812 19.9942 25.4579 19.9942L24.8256 20.0195V20.6012C24.8256 20.7529 24.8509 20.7529 24.8762 20.7782C24.9015 20.8035 24.9268 20.8288 24.9521 20.8288H25.1544L25.7614 20.8035L25.5085 21.6382H24.8003C24.3198 21.6382 23.9404 21.6382 23.814 21.537C23.6875 21.4611 23.6875 21.3599 23.6875 21.2082L23.7381 18.9572H24.8509L24.8256 19.4125H25.1038C25.205 19.4125 25.2556 19.4125 25.3062 19.3872C25.3315 19.3619 25.3568 19.3366 25.3821 19.2607L25.4832 18.9066H26.3937V18.8813Z" fill="white"/>
<path d="M10.3577 7.62646C10.3071 7.80351 9.59894 11.142 9.59894 11.142C9.44719 11.8249 9.32073 12.3055 8.94136 12.609C8.71373 12.786 8.46081 12.8872 8.1826 12.8872C7.70206 12.8872 7.42385 12.6595 7.39856 12.2043V12.0525L7.55031 11.142C7.55031 11.142 8.30906 8.10701 8.43552 7.70234C8.43552 7.67705 8.43552 7.67705 8.43552 7.65176C6.96859 7.67705 6.71568 7.65176 6.69038 7.62646C6.69038 7.65176 6.6398 7.85409 6.6398 7.85409L5.85575 11.2685L5.80517 11.5467L5.67871 12.4825C5.67871 12.7607 5.72929 12.9883 5.85575 13.1907C6.20984 13.7977 7.22151 13.8988 7.77793 13.8988C8.5114 13.8988 9.19428 13.7471 9.64953 13.4689C10.4589 12.9883 10.6612 12.2549 10.8635 11.5973L10.9394 11.2685C10.9394 11.2685 11.7235 8.1323 11.8499 7.72763C11.8499 7.70234 11.8499 7.70234 11.8752 7.67705C10.7877 7.65176 10.4589 7.65176 10.3577 7.62646Z" fill="white"/>
<path d="M14.6827 13.8735C14.1515 13.8735 13.9745 13.8735 13.3675 13.8988L13.3422 13.8482C13.3928 13.6206 13.4434 13.393 13.4939 13.1401L13.5698 12.8113C13.671 12.3307 13.7974 11.749 13.7974 11.572C13.7974 11.4708 13.848 11.1926 13.5445 11.1926C13.4181 11.1926 13.2916 11.2432 13.1399 11.3191C13.064 11.572 12.9122 12.3307 12.8364 12.6595C12.6846 13.3677 12.6846 13.4436 12.6087 13.7977L12.5581 13.8482C12.027 13.8482 11.8247 13.8482 11.2177 13.8735L11.1924 13.823C11.2936 13.393 11.3947 12.9883 11.4959 12.5584C11.7488 11.4202 11.8247 10.9903 11.9006 10.4086L11.9511 10.3833C12.5581 10.3074 12.7099 10.2821 13.3422 10.1556L13.3928 10.2062L13.2916 10.5603C13.3928 10.4844 13.5192 10.4338 13.6204 10.358C13.9239 10.2062 14.278 10.1556 14.455 10.1556C14.7332 10.1556 15.062 10.2315 15.1885 10.5603C15.3149 10.8638 15.2391 11.2179 15.062 11.9261L14.9862 12.2802C14.8091 13.0642 14.7838 13.216 14.7079 13.7724L14.6827 13.8735Z" fill="white"/>
<path d="M16.8069 13.8736C16.5034 13.8736 16.2757 13.8736 16.0987 13.8736C15.8964 13.8736 15.7193 13.8736 15.4158 13.8989L15.3905 13.8736L15.3652 13.8483C15.4411 13.5448 15.4917 13.4436 15.517 13.3424C15.5676 13.2413 15.5929 13.1401 15.6687 12.8113C15.7699 12.4066 15.8205 12.1284 15.8458 11.8755C15.8964 11.6479 15.9217 11.4456 15.9469 11.1926L15.9722 11.1673L15.9975 11.1421C16.301 11.0915 16.5034 11.0662 16.7057 11.0409C16.908 11.0156 17.1104 10.965 17.4392 10.9144V10.9397V10.965C17.3886 11.2179 17.3127 11.4708 17.2621 11.6985C17.2115 11.9514 17.1357 12.2043 17.0851 12.4319C16.9586 12.9631 16.9333 13.1654 16.8827 13.2919C16.8575 13.4183 16.8575 13.4942 16.8069 13.7724L16.7816 13.7977L16.8069 13.8736Z" fill="white"/>
<path d="M20.1204 12.0019C20.0951 12.1284 19.9687 12.6342 19.8169 12.8618C19.7157 13.0136 19.564 13.1147 19.4375 13.1147C19.3869 13.1147 19.134 13.1147 19.134 12.7354C19.134 12.533 19.1593 12.356 19.2099 12.1536C19.3364 11.5466 19.5134 11.0408 19.9181 11.0408C20.2469 11.0155 20.2722 11.3949 20.1204 12.0019ZM21.4862 12.0778C21.6632 11.2684 21.5367 10.8891 21.3597 10.6614C21.0815 10.3073 20.601 10.2062 20.1204 10.2062C19.8169 10.2062 19.1087 10.2315 18.5523 10.7373C18.1224 11.1167 17.9453 11.6225 17.8189 12.1031C17.7177 12.5836 17.5659 13.4688 18.4006 13.7976C18.6535 13.8988 19.0076 13.9241 19.2352 13.9241C19.8422 13.9241 20.4492 13.7723 20.9045 13.2665C21.2585 12.9124 21.4356 12.3054 21.4862 12.0778Z" fill="white"/>
<path d="M34.2332 13.924C33.6009 13.924 33.4239 13.924 32.8422 13.9493L32.8169 13.8987C32.9686 13.2917 33.1204 12.71 33.2721 12.103C33.4492 11.319 33.4998 10.9902 33.5504 10.5349L33.6009 10.4843C34.2332 10.3832 34.4103 10.3579 35.0426 10.2567L35.0679 10.3073C34.9414 10.8131 34.8402 11.2937 34.7138 11.7995C34.4862 12.8365 34.385 13.3676 34.2838 13.8987L34.2332 13.924Z" fill="white"/>
<path d="M33.2975 12.0778C33.2722 12.2043 33.1458 12.7101 32.994 12.9377C32.8929 13.0895 32.64 13.1906 32.4882 13.1906C32.4376 13.1906 32.1847 13.1906 32.1847 12.8113C32.1847 12.6342 32.21 12.4319 32.2606 12.2295C32.4123 11.6225 32.5641 11.1167 32.9687 11.1167C33.2975 11.0914 33.424 11.4708 33.2975 12.0778ZM34.5368 12.1537C34.7139 11.3443 33.9804 12.0778 33.854 11.8249C33.6769 11.4202 33.7781 10.5856 33.0699 10.3074C32.7917 10.2062 32.1341 10.3327 31.5777 10.8385C31.173 11.1926 30.996 11.6984 30.8948 12.179C30.7936 12.6595 30.6419 13.5447 31.4512 13.8735C31.7042 13.9747 31.9318 14.0253 32.1847 14C32.994 13.9494 33.6263 12.7354 34.0816 12.2548C34.4357 11.8502 34.4863 12.3813 34.5368 12.1537Z" fill="white"/>
<path d="M25.0519 13.8735C24.5208 13.8735 24.3437 13.8735 23.7367 13.8988L23.7114 13.8482C23.762 13.6206 23.8126 13.393 23.8885 13.1401L23.9643 12.8113C24.0908 12.3307 24.192 11.749 24.192 11.572C24.192 11.4708 24.2426 11.1926 23.9391 11.1926C23.8126 11.1926 23.6861 11.2432 23.5344 11.3191C23.4585 11.572 23.3068 12.3307 23.2309 12.6595C23.0791 13.3677 23.0791 13.4436 23.0033 13.7977L22.9527 13.8482C22.4215 13.8482 22.2192 13.8482 21.6122 13.8735L21.5869 13.823C21.6881 13.393 21.7892 12.9883 21.8904 12.5584C22.1433 11.4202 22.2192 10.9903 22.2951 10.4086L22.3457 10.3833C22.9527 10.3074 23.1044 10.2821 23.762 10.1556L23.8126 10.2062L23.7114 10.5603C23.8126 10.4844 23.9391 10.4338 24.0402 10.358C24.3437 10.2062 24.6978 10.1556 24.8749 10.1556C25.1531 10.1556 25.4819 10.2315 25.6083 10.5603C25.7348 10.8638 25.6589 11.2179 25.4819 11.9261L25.406 12.2802C25.2289 13.0642 25.2036 13.216 25.1278 13.7724L25.0519 13.8735Z" fill="white"/>
<path d="M29.5799 7.62649H29.15C28.0118 7.65178 27.5819 7.62649 27.3795 7.6012C27.3542 7.67707 27.3289 7.82882 27.3289 7.82882L26.9243 9.70042C26.9243 9.70042 25.9632 13.6712 25.9126 13.8736C26.899 13.8736 27.3036 13.8736 27.4807 13.8736C27.5313 13.6965 27.7589 12.5837 27.7589 12.5837C27.7589 12.5837 27.9612 11.7743 27.9612 11.7491C27.9612 11.7491 28.0118 11.6732 28.0877 11.6226H28.1889C29.0488 11.6226 30.0099 11.6226 30.7433 11.0662C31.2492 10.6868 31.6033 10.1304 31.755 9.4475C31.8056 9.27046 31.8309 9.09341 31.8309 8.89108C31.8309 8.63816 31.7803 8.35995 31.6286 8.18291C31.2239 7.62649 30.4398 7.62649 29.5799 7.62649ZM30.1363 9.57396C30.0352 9.97863 29.7822 10.3327 29.4282 10.5098C29.15 10.6615 28.7959 10.6615 28.4418 10.6615H28.2142L28.2394 10.5603L28.6694 8.68875L28.6947 8.58758V8.5117L28.8717 8.53699C28.8717 8.53699 29.757 8.61287 29.7822 8.61287C30.0858 8.76462 30.2375 9.11871 30.1363 9.57396Z" fill="white"/>
<path d="M39.3931 10.2315L39.3425 10.1809C38.7102 10.3074 38.5837 10.3327 38.002 10.4085L37.9514 10.4591V10.4844C37.5215 11.4961 37.5215 11.2937 37.1674 12.0778C37.1674 12.0525 37.1674 12.0272 37.1674 11.9766L37.0662 10.2315L37.0156 10.1809C36.3328 10.3074 36.3328 10.3327 35.7005 10.4085L35.6499 10.4591C35.6499 10.4844 35.6499 10.5097 35.6499 10.535C35.7258 10.9397 35.7005 10.8385 35.7763 11.4708C35.8016 11.7743 35.8522 12.0778 35.9028 12.3813C35.9534 12.8871 36.004 13.1401 36.0798 13.9241C35.6499 14.607 35.5487 14.8852 35.144 15.4922L35.1693 15.5428C35.7763 15.5175 35.9281 15.5175 36.3581 15.5175L36.4592 15.4163C36.8133 14.6829 39.3931 10.2315 39.3931 10.2315Z" fill="white"/>
<path d="M17.364 10.6615C17.7181 10.4339 17.7434 10.0798 17.4652 9.92806C17.1617 9.75101 16.6559 9.8016 16.3018 10.0545C15.9477 10.2821 15.9224 10.6109 16.2006 10.788C16.5041 10.965 17.0353 10.9144 17.364 10.6615Z" fill="white"/>
<path d="M36.4087 15.4669L35.9029 16.3269C35.7511 16.6304 35.4476 16.858 34.9671 16.858L34.1577 16.8327L34.3853 16.0487H34.5371C34.613 16.0487 34.6888 16.0487 34.7141 16.0234C34.7647 15.9981 34.79 15.9728 34.8153 15.9222L35.1188 15.4417H36.4087V15.4669Z" fill="white"/>
</g>
<path d="M2 1H42V-1H2V1ZM43 2V26H45V2H43ZM42 27H2V29H42V27ZM1 26V2H-1V26H1ZM2 27C1.44772 27 1 26.5523 1 26H-1C-1 27.6569 0.343147 29 2 29V27ZM43 26C43 26.5523 42.5523 27 42 27V29C43.6569 29 45 27.6569 45 26H43ZM42 1C42.5523 1 43 1.44772 43 2H45C45 0.343145 43.6569 -1 42 -1V1ZM2 -1C0.343145 -1 -1 0.343147 -1 2H1C1 1.44772 1.44772 1 2 1V-1Z" fill="#ECEEF1"/>
<defs>
<clipPath id="clip0">
<rect width="41.5798" height="26" fill="white" transform="translate(1 1)"/>
</clipPath>
</defs>
</svg>
