<svg width="44" height="28" viewBox="0 0 44 28" fill="none" xmlns="http://www.w3.org/2000/svg">
<g clip-path="url(#clip0)">
<path d="M1.56681 29.0677C0.1305 29.0677 -1.03906 27.8977 -1.03906 26.4601V1.5993C-1.03906 0.161501 0.130473 -1.0083 1.56681 -1.0083H42.4606C43.8968 -1.0083 45.0666 0.161553 45.0666 1.5993V26.4601C45.0666 27.8977 43.8968 29.0677 42.4606 29.0677H1.56681Z" fill="white" stroke="#2D333A"/>
<path fill-rule="evenodd" clip-rule="evenodd" d="M18.7464 17.76L20.0924 10H22.2448L20.8986 17.76H18.7464ZM24.686 12.2217C24.686 12.5735 25.1094 12.8051 25.8011 13.1489C26.9404 13.6843 27.4687 14.3394 27.4608 15.1946C27.4448 16.753 26.0939 17.76 24.0195 17.76C23.1321 17.7519 22.2777 17.5678 21.8142 17.3602L22.0907 15.674L22.351 15.794C22.9939 16.074 23.4171 16.1935 24.2065 16.1935C24.7757 16.1935 25.3859 15.9617 25.3938 15.4584C25.3938 15.1308 25.1337 14.8908 24.3688 14.5232C23.6203 14.1633 22.6196 13.5642 22.636 12.4852C22.6443 11.0228 24.0195 10.0001 25.9719 10.0001C26.7368 10.0001 27.3555 10.1679 27.7456 10.3198L27.4766 11.942L27.2977 11.8623C26.94 11.7102 26.4676 11.5585 25.8248 11.5746C25.0443 11.5746 24.6941 11.902 24.686 12.2217ZM30.3735 14.9868C30.5363 14.5553 31.1629 12.8852 31.1629 12.8852C31.1597 12.8915 31.1848 12.823 31.2225 12.7205C31.2792 12.5659 31.3643 12.3341 31.423 12.1658L31.5615 12.8132C31.5615 12.8132 31.9357 14.6112 32.0171 14.9868H30.3735ZM32.8142 10.1362H31.2848C30.8133 10.1362 30.4549 10.2718 30.2515 10.7593L27.3143 17.6479H29.3892C29.3892 17.6479 29.7307 16.7207 29.804 16.5211H32.3428C32.3996 16.7848 32.5788 17.6479 32.5788 17.6479H34.4095L32.8142 10.1362ZM15.012 15.2585L16.9487 10.1362H19.0396L15.9316 17.64H13.8405L12.078 11.1129C11.4702 10.7637 10.776 10.4828 10 10.2879L10.0326 10.1362H13.214C13.6452 10.1521 13.9951 10.2879 14.1089 10.7676L14.8003 14.2191C14.8004 14.2192 14.8005 14.2193 14.8005 14.2194C14.8005 14.2195 14.8005 14.2196 14.8005 14.2196L15.012 15.2585Z" fill="#191B73"/>
</g>
<path d="M2 1H42V-1H2V1ZM43 2V26H45V2H43ZM42 27H2V29H42V27ZM1 26V2H-1V26H1ZM2 27C1.44772 27 1 26.5523 1 26H-1C-1 27.6569 0.343147 29 2 29V27ZM43 26C43 26.5523 42.5523 27 42 27V29C43.6569 29 45 27.6569 45 26H43ZM42 1C42.5523 1 43 1.44772 43 2H45C45 0.343145 43.6569 -1 42 -1V1ZM2 -1C0.343145 -1 -1 0.343147 -1 2H1C1 1.44772 1.44772 1 2 1V-1Z" fill="#ECEEF1"/>
<defs>
<clipPath id="clip0">
<path d="M0 2C0 0.895431 0.895431 0 2 0H42C43.1046 0 44 0.895431 44 2V26C44 27.1046 43.1046 28 42 28H2C0.895431 28 0 27.1046 0 26V2Z" fill="white"/>
</clipPath>
</defs>
</svg>
